<svg id="b27c4345-6701-4d58-a8b5-59e16ad333ad" data-name="Layer 1" xmlns="http://www.w3.org/2000/svg" viewBox="0 0 80 80">
  <path d="M22.8,26.6,25.3,29l.75-.8-.95-.9,1.55-1.7-.6-.6L24.5,26.7l-.7-.7,2.25-2.4-.6-.6-3.1,3.35c.15.1.3.15.45.25Zm5.5-5.05h0l.05,4L29.3,25v-.8l2.25-1.3.65.45.95-.55L29.4,20.4l-1.35.75A.50987.50987,0,0,1,28.3,21.55Zm2.45.9-1.45.85-.05-1.85Zm7.05-.7h1.05v-1.1h1.8l.8,1.1h1.2l-.9-1.2.1-.05a1.35658,1.35658,0,0,0,.7-1.3,1.4038,1.4038,0,0,0-1.3-1.5H37.6a1.776,1.776,0,0,1,.2.45Zm3.1-3.15h0a.55488.55488,0,0,1,.55.55v.05a.55415.55415,0,0,1-.5.6H38.8V18.6ZM62.15,37c-.25-1.4-1.15-2.4-2.2-2.4a.63421.63421,0,0,0-.3.05c-1.2.2-1.85,1.5-1.6,3.05.25,1.45,1.1,2.4,2.2,2.4a.63417.63417,0,0,0,.3-.05C61.75,39.85,62.4,38.55,62.15,37Zm-1.8,1.95h-.2c-.6,0-1.1-.55-1.25-1.4-.15-1,.2-1.7.9-1.8H60c.6,0,1.1.55,1.25,1.4C61.45,38.1,61.1,38.85,60.35,38.95ZM52.8,23.4l-.4,3.05.05.05,2.9-.7-1.6,2.15.8.75L57,25.5l-.9-.85-2.55.55.3-2.65-.95-.9h0l-.1-.1a.64193.64193,0,0,1-.2.5L50.1,24.5l.8.75Zm-6.4-.35a3.36124,3.36124,0,0,0,1.2.2h0a2.06016,2.06016,0,0,0,2.05-1.3,1.99181,1.99181,0,0,0-.25-1.75,3.08954,3.08954,0,0,0-1.6-1.15,3.36122,3.36122,0,0,0-1.2-.2,1.95878,1.95878,0,0,0-2.05,1.3C44.15,21.3,44.9,22.5,46.4,23.05Zm-.85-2.55a1.0861,1.0861,0,0,1,1.15-.75,2.00628,2.00628,0,0,1,.75.15c.9.35,1.35,1,1.1,1.7a1.0861,1.0861,0,0,1-1.15.75,2.00628,2.00628,0,0,1-.75-.15C45.75,21.85,45.3,21.2,45.55,20.5ZM40,15A25,25,0,1,0,65,40,25.00912,25.00912,0,0,0,40,15Zm0,49A24,24,0,1,1,64,40,24.00619,24.00619,0,0,1,40,64ZM17.85,37.55a.30061.30061,0,0,1,.2-.05.37468.37468,0,0,1,.25.05h0L21.5,40l.15-1.05-.65-.5.4-2.55.75-.25.15-1.05L18.1,36ZM20.5,36.2l-.25,1.65-1.45-1.1Zm19.65-4.4.05-.05h0l-.05-.05a4.3957,4.3957,0,0,1-1.5-2.05,4.08749,4.08749,0,0,0-.6-1,1.14465,1.14465,0,0,0-.85-.4,1.701,1.701,0,0,0-.5.05h-.1l.05.1a.99044.99044,0,0,0,.55.55h.2c.3.2.45,1.5.45,2.15a.13258.13258,0,0,1-.15.15.35637.35637,0,0,1-.3-.15.98717.98717,0,0,0-.7-.3.94129.94129,0,0,0-1,.85v.1a.94129.94129,0,0,0,1,.85.90782.90782,0,0,0,.7-.3.43217.43217,0,0,1,.3-.15.13258.13258,0,0,1,.15.15c0,.65-.15,1.95-.45,2.15h-.2a.99044.99044,0,0,0-.55.55l-.05.1h.1a1.701,1.701,0,0,0,.5.05,1.068,1.068,0,0,0,.85-.4,2.3323,2.3323,0,0,0,.6-1,4.77393,4.77393,0,0,1,1.5-1.95Zm-.6-5.5a.45.45,0,1,0-.45-.45h0a.52766.52766,0,0,0,.45.45Zm-.15,1.1h3.95a.3.3,0,1,0,0-.6H39.4a.32262.32262,0,0,0-.3.3A.2882.2882,0,0,0,39.4,27.4Zm.6-4.2A16.775,16.775,0,1,0,56.8,39.95,16.76167,16.76167,0,0,0,40,23.2ZM29.4,51.85a15.79173,15.79173,0,0,1-5.2-9.95h5.2ZM29.4,38H24.2a15.78992,15.78992,0,0,1,5.2-9.85ZM45.15,55.1a15.818,15.818,0,0,1-11.8-.65V41.9h4.5a5.03369,5.03369,0,0,1,.3-3.9h-4.8V25.55a15.94412,15.94412,0,0,1,14.35.5h0a1.17112,1.17112,0,0,1-.65,2.15h-2a1.35056,1.35056,0,0,0-1.05.35c-.55.5-.35,1.05-1.5,1.05H39.35A4.91493,4.91493,0,0,0,41,31.45h3.85a.376.376,0,0,1,.35.25.18366.18366,0,0,0,.05.15v.05a.36523.36523,0,0,1-.35.3H41a3.62,3.62,0,0,0-1.65,2H46.4a.8284.8284,0,0,1,.15,1.65h-3.7a4.45,4.45,0,0,0,0,8.9H47.3a.35.35,0,0,1,0,.7H42.75a3.25,3.25,0,0,0,0,6.5H44.5a1.57953,1.57953,0,0,1,1.6,1.6,1.92221,1.92221,0,0,1-.95,1.55Zm6.8-25.7h0A15.917,15.917,0,0,1,50.6,51.9a15.57567,15.57567,0,0,1-4.05,2.6l-.05.05h.05A2.63993,2.63993,0,0,0,47.8,51a2.68673,2.68673,0,0,0-2.4-1.55H42.6a.35.35,0,0,1,0-.7h4.75a4.05278,4.05278,0,0,0,0-8.1h-4.6a.35.35,0,1,1,0-.7h3.5A6.66885,6.66885,0,0,0,53,33.3a6.91806,6.91806,0,0,0-1.15-3.8h0c0-.05.05-.05.1-.1h0c0,.05-.05,0,0,0ZM41.4,26.25a.45.45,0,1,0-.45-.45h0a.44813.44813,0,0,0,.45.45Zm15.2,4.2.65-.35,1.05,2.05.75-.4L58,29.7l.6-.35,1.55,2.95.75-.4-2.1-4.05a.88935.88935,0,0,1-.35.4L55.4,29.9l2.1,4.05.7-.4Zm-32.8-.9-1.35,2.7-2.8-1.45-.6,1.15h.2a.63417.63417,0,0,1,.3.05l3.1,1.6,1.85-3.65Zm19.4-3.3a.45.45,0,0,0,0-.9h0a.45.45,0,1,0,0,.9Z" style="fill: #fff"/>
</svg>
