<svg id="b483ff06-b680-459b-aa96-830d2007734e" data-name="Layer 1" xmlns="http://www.w3.org/2000/svg" viewBox="0 0 80 80">
  <path d="M44.70831,51.1757a.617.617,0,0,0,.69747.1727v3.53149a3.77912,3.77912,0,0,0-.414-.00663,14.80893,14.80893,0,0,1-8.38251-2.82078,16.77788,16.77788,0,0,0,3.55139-4.93077,13.69169,13.69169,0,0,0,2.09451-.0952c.45832-.05314.72847-.05757,1.18679-.07528.186-.00664.52031-.11735.46938-.46053a3.7,3.7,0,0,0-.22583-.71072.20868.20868,0,0,1,.36311-.2037c.07528.11956.23912.507.29447.63545a2.08686,2.08686,0,0,0,.61327.69745,2.3676,2.3676,0,0,0,.5912.3144,3.19726,3.19726,0,0,1,1.12918.71293,2.54838,2.54838,0,0,1,.27676.321c.29448.38525.3764.57565-.031,1.03839a2.16131,2.16131,0,0,1-1.36163.74835.69221.69221,0,0,1-.80815-.42511c-.02878-.0642-.06421-.1262-.09963-.18819-.06864-.12178-.13506-.248-.21477-.36533a.46476.46476,0,0,0-.48046-.23026c-.33875.05092-.67529.10406-1.01187.16827-.05757.01107-.197.10185-.15941.13285a5.02827,5.02827,0,0,0,.60444.84579.48753.48753,0,0,0,.40739.1727c.32769-.01328.341,0,.476.29669a4.44739,4.44739,0,0,0,.2037.41182,1.74683,1.74683,0,0,0,.23027.31219m1.23546-2.89826a4.68042,4.68042,0,0,0-.90553.13949,1.86278,1.86278,0,0,0,.20812.71956.3156.3156,0,0,0,.3919.22141,1.0321,1.0321,0,0,0,.33433-.10406.46348.46348,0,0,0,.22362-.54467.90006.90006,0,0,0-.25241-.43175M54.548,43.86916a1.22981,1.22981,0,0,0-.445-.6244c-.17934-.13285-.35647-.2679-.54245-.3941a1.28674,1.28674,0,0,0-.25684-.11735.22515.22515,0,0,0-.28119.08413c-.06421.08414-.11734.17713-.18377.26127a.26918.26918,0,0,1-.3144.0952.25558.25558,0,0,1-.17934-.27233.66542.66542,0,0,1,.011-.17713,2.87245,2.87245,0,0,1,.51367-1.07823.65762.65762,0,0,1,.1262-.12178.25979.25979,0,0,1,.35425.00442,14.28265,14.28265,0,0,0,1.169,1.08045,1.91174,1.91174,0,0,1,.60224,1.30853,1.17143,1.17143,0,0,1-.03543.18377.2418.2418,0,0,1-.40518.05535,1.6988,1.6988,0,0,1-.13284-.28783m-.86125,2.29381c.16163-.04429.27012.0465.29447.21255.00886.07085.00886.13949.011.1727,0,.46938-.13063.693-.68633.73288-.23248-.01328-.30112-.07528-.32326-.19484a.7129.7129,0,0,1,.28783-.74172,1.30094,1.30094,0,0,1,.41625-.18156M70,25.12024l-3.46066,9.60228H62.12441V39.9987c-.00453.1417.00228.2834,0,.4251A14.56958,14.56958,0,0,1,47.92988,54.86832l-.72847.01105V50.49988l.26569-.11735a1.05371,1.05371,0,0,0,.53581-.43839.65153.65153,0,0,1,.62219-.3299c.38083.00221.45168-.06863.52474-.42953.06642-.39411.11735-.72177.186-1.04508a1.09091,1.09091,0,0,0-.13727-.85021c-.29669-.46717-.59338-.93654-.90338-1.39486-.21477-.3144-.32769-.3299-.62-.06642l.2679.49817c.21256.29669.42954.59339.63545.89669a.80375.80375,0,0,1,.14391.31661,2.048,2.048,0,0,1-.21919,1.33733c-.02879.05092-.09964.0797-.16606.12842a.97455.97455,0,0,1-.08635-.17935,1.72494,1.72494,0,0,1-.02657-.31882,1.616,1.616,0,0,0-.37418-1.04282c-.30333-.37639-.58448-.77051-.86789-1.1624a.79436.79436,0,0,1,.093-1.11366c.14392-.13949.29448-.27234.44282-.40961a1.632,1.632,0,0,0,.45168-.66645,4.94652,4.94652,0,0,0,.186-.60887,6.73188,6.73188,0,0,0,.13727-1.54987l.00454-.38968a.35648.35648,0,0,1,.10406-.25462.22644.22644,0,0,1,.36532.031.82441.82441,0,0,1,.10849.25683,4.14115,4.14115,0,0,1,.10628,1.37054,8.83283,8.83283,0,0,1-.35647,1.69379.65763.65763,0,0,0-.06864.35426,2.35423,2.35423,0,0,0,.2502,0c.16384-.01993.32768-.05314.49152-.07307a2.23926,2.23926,0,0,0,1.4347-.68634c.17934-.1882.3764-.35869.56681-.538a.22493.22493,0,0,1,.25683-.05978.21936.21936,0,0,1,.11735.26791,1.81167,1.81167,0,0,1-.13285.40075,5.41459,5.41459,0,0,1-.34318.6177,6.693,6.693,0,0,0-.67751,1.31959c-.10628.28783-.23027.569-.3299.85684-.09964.29226-.02878.37418.26569.33654.23469-.02878.2989.02214.3144.25462.00664.093-.00228.1882,0,.28119a2.19578,2.19578,0,0,0,.01768.31883.71758.71758,0,0,0,.93652.54467,4.87173,4.87173,0,0,0,.54246-.259c.13506-.07307.26126-.16163.39189-.24355a2.60175,2.60175,0,0,1,1.19122-.41182c.17712-.01329.35425-.01329.53138-.00886a.88579.88579,0,0,0,.74615-.33433,3.475,3.475,0,0,1,.341-.35868.4296.4296,0,0,1,.60887-.05093c.19041.11735.372.25241.55574.38083a4.91978,4.91978,0,0,0,.92106.52474,1.8927,1.8927,0,0,0,.92992.16827,1.07723,1.07723,0,0,0,.155-.05314c-.07749-.07085-.124-.12178-.17712-.16163-.14835-.11513-.31219-.21477-.45168-.341a6.39722,6.39722,0,0,1-.57345-.57565c-.22141-.259-.42289-.53581-.6288-.81037a5.76374,5.76374,0,0,1-.34761-.48931.69558.69558,0,0,1-.08414-.2989.191.191,0,0,1,.26348-.19041.87714.87714,0,0,1,.27012.16162c.279.25683.55131.5181.82143.78157.16827.16606.32325.34541.49374.507a1.76765,1.76765,0,0,0,.67972.43618,1.0089,1.0089,0,0,0,.80154-.05093c.03985-.04871-.18377-.15055-.18377-.15055a4.81579,4.81579,0,0,1-1.79566-1.57867,9.03075,9.03075,0,0,1-.848-1.51c-.27676-.61329-.48046-1.25537-.70629-1.88861-.27455-.76609-.55131-1.52992-.83918-2.2916a4.98582,4.98582,0,0,0-.828-1.355,7.40107,7.40107,0,0,0-1.56537-1.37275,20.74038,20.74038,0,0,0-1.82659-1.08271c-1.03176-.57123-2.11006-1.05613-3.102-1.70042a2.6242,2.6242,0,0,0-.3299-.1727,2.56707,2.56707,0,0,0-.31219-.10407l-.16827-.031V25.12ZM47.46035,37.04983a.98831.98831,0,0,1-.19484-.20149.32723.32723,0,0,1-.01325-.36754.34209.34209,0,0,1,.321-.18155.505.505,0,0,1,.1727.02878,2.01726,2.01726,0,0,1,.352.15942A3.7139,3.7139,0,0,1,49.349,37.80482a1.57158,1.57158,0,0,1,.20813.71735c-.01325.09078,0,.20591-.12178.259-.08635.03543-.17934-.00221-.25683-.13063a4.4005,4.4005,0,0,0-1.32178-1.30632c-.13506-.09521-.27012-.19041-.39632-.29448M35.10116,50.80167q-.35536.33543-.73067.64871c-.2524.21034-.51145.40961-.77714.60223a14.87872,14.87872,0,1,1,0-24.107,16.80173,16.80173,0,0,0-4.66289,8.24761,5.54413,5.54413,0,1,0,1.51224,3.80594,14.8404,14.8404,0,0,1,4.65848-10.80448q.35537-.33543.73067-.6465c.2524-.21033.51145-.40961.77714-.60223a14.81782,14.81782,0,0,1,8.79855-2.82519l-.00228,9.10235a.6441.6441,0,0,1-.1882.11956,2.42591,2.42591,0,0,1-.51145.12842,5.54227,5.54227,0,0,0-3.43406,1.72258,5.66147,5.66147,0,0,0-.77936,1.0495,5.54088,5.54088,0,0,0-.73288,2.75656,14.83739,14.83739,0,0,1-4.65848,10.80277" style="fill: #fff"/>
</svg>
