<svg id="f6b2224e-9f0b-47bd-accc-931d00a74ead" data-name="Layer 1" xmlns="http://www.w3.org/2000/svg" viewBox="0 0 80 80">
  <g id="b7ad262c-89fb-4988-8c80-ac8dd28e04e1" data-name="AM LOGO">
    <g>
      <path d="M36.70181,46.79126a2.08347,2.08347,0,0,1-.624-.09338c-7.35729-2.00706-8.17459-2.23-8.27177-2.25789l-.00031.001c-1.62378-.4897-1.94386-1.02294-2.19358-1.66917a.75923.75923,0,0,0-.42348-.4333c-.10079-.02958-10.08074-2.95971-10.11427-2.96946a1.21386,1.21386,0,0,1-.85912-.60552c-.55435-.9761-.55538-.97817-.55673-.98078a.39345.39345,0,0,0-.28686-.20978,1.3602,1.3602,0,0,1-1.156-.76048l-.45-.78911a.39955.39955,0,0,0-.27692-.22048.95879.95879,0,0,1-.89185-.47739c-.00027-.00042-.43579-.72522-.44258-.73646a.91711.91711,0,0,1-.0422-.95385.9325.9325,0,0,1,.82777-.42635l24.1858-.00008a2.32243,2.32243,0,0,1,1.71279.64489,2.38161,2.38161,0,0,1,.62516,1.18054c.00376.00507.04136.03384.14694.03384H42.39c.107,0,.14341-.0295.1484-.04089a2.36945,2.36945,0,0,1,.62352-1.17318,2.32239,2.32239,0,0,1,1.713-.6452H69.05452a.968.968,0,0,1,.8346.42739l.00023.00046A.7917.7917,0,0,1,70,34.04653a1.13439,1.13439,0,0,1-.15124.53812l-.44542.74149a.95964.95964,0,0,1-.89292.47684.40211.40211,0,0,0-.2757.22045l-.451.79148a1.36482,1.36482,0,0,1-1.16171.7586.39813.39813,0,0,0-.2849.2183l-.55354.97495a1.21628,1.21628,0,0,1-.85939.60291l-10.11231,2.969a.73331.73331,0,0,0-.42341.433c-.23234.62148-.5576,1.17587-2.19167,1.66859-.00122.00046-.00414.00139-4.14033,1.12991L44.27813,46.601c-.19406.053-.295.08049-.35182.091l.00146.00438a1.90314,1.90314,0,0,1-1.86111-.38673c-1.9324-1.84365-1.94068-1.852-1.94337-1.85482h0a.20453.20453,0,0,0-.123-.05317.20154.20154,0,0,0-.122.05237l-.00291.00276c-.01919.01834-1.92081,1.83322-1.94,1.85164l-.00008.00007A1.7341,1.7341,0,0,1,36.70181,46.79126Zm4.16132-2.50811,1.34264,1.28076a3.29874,3.29874,0,0,0,.48978.43364,1.69866,1.69866,0,0,1-.15815-.41016l-.38979-1.40507C41.72666,44.23017,41.29589,44.264,40.86313,44.28315Zm-3.0107-.0999L37.462,45.59118a1.69672,1.69672,0,0,1-.1565.40457,1.05753,1.05753,0,0,0,.18884-.14522l.00034-.00034,1.64259-1.567C38.70323,44.264,38.27227,44.23055,37.85243,44.18325Zm4.83222-.07006.37468,1.35219a.96711.96711,0,0,0,.351.55423.52683.52683,0,0,0,.40636.04853L45.733,45.5453a2.27947,2.27947,0,0,1-.34644-.463l-.79838-1.35165A17.47551,17.47551,0,0,1,42.68465,44.11319Zm-8.41748,1.43207,1.91828.52327a.52615.52615,0,0,0,.40468-.04884.975.975,0,0,0,.35028-.55147l.00115-.00468.374-1.34931a17.45124,17.45124,0,0,1-1.90382-.38239l-.47327.801c-.19183.32465-.31311.52991-.32243.54579A2.31019,2.31019,0,0,1,34.26717,45.54526Zm10.85561-1.96339.729,1.23425c.11195.20112.39954.56049.59136.53524l2.17418-.59309a2.09281,2.09281,0,0,1-.27209-.23188L46.849,42.96606A16.5993,16.5993,0,0,1,45.12278,43.58187ZM33.55687,45.35136c.195.02344.48161-.33689.593-.53739l.7273-1.23095a16.59312,16.59312,0,0,1-1.72576-.61719l-1.376,1.435c-.05437.0567-.09262.09656-.12189.12242l.00234.00223a2.06117,2.06117,0,0,1-.27278.2328ZM30.492,44.51511c.28844.06652.66649-.245.77641-.35976l1.36186-1.42014c-.46207-.21381-.92181-.45325-1.36927-.7131l-2.566,1.83675a1.80228,1.80228,0,0,1-.18028.11687ZM47.3707,42.73567l1.36159,1.42c.11018.11487.49046.42751.77767.3591l1.97559-.53892a1.841,1.841,0,0,1-.17763-.1151l-2.568-1.83817C48.29538,42.281,47.83553,42.52044,47.3707,42.73567Zm-7.10246-3.3134v4.342c.58576-.00836,1.16823-.0437,1.73419-.10523l-1.1749-4.23679Zm-2.27036,4.23652c.5693.06154,1.15177.09687,1.73443.10516V39.42227H39.173Zm-10.49459.01043a1.1901,1.1901,0,0,0,.87416-.242l2.384-1.70654c-.4849-.30463-.963-.63975-1.42355-.99789l-2.6427,1.23664c-.05275.0247-.093.04354-.12465.05528l.00123.00242a2.848,2.848,0,0,1-.54333.19961,1.45141,1.45141,0,0,1,.18281.34215C26.351,42.91622,26.49665,43.28906,27.50329,43.66922ZM49.2391,41.7206c1.27749.91452,2.37536,1.70044,2.3861,1.70815a1.19093,1.19093,0,0,0,.87152.24047c1.00648-.37943,1.15311-.75292,1.294-1.11406a1.4714,1.4714,0,0,1,.18132-.33823,2.8374,2.8374,0,0,1-.53835-.19743l-2.77084-1.29656C50.20583,41.07836,49.72757,41.41344,49.2391,41.7206Zm-7.85542-2.29833,1.15649,4.16988a16.95656,16.95656,0,0,0,1.76381-.34257l-2.2608-3.82731Zm-5.68762,3.82812a16.93313,16.93313,0,0,0,1.76416.34183l1.15661-4.16995h-.65947C37.63156,39.974,36.54344,41.81613,35.69606,43.25039Zm-2.1454-.70083a16.10212,16.10212,0,0,0,1.60828.55623l2.176-3.68352h-.78515Zm9.11488-3.12729,2.17572,3.68294a16.14463,16.14463,0,0,0,1.60905-.55488l-2.9995-3.12806Zm1.52772,0,2.78381,2.90312c.43552-.19558.86614-.41262,1.28286-.64649l-3.15249-2.25663Zm-12.45253,2.2564c.41887.23468.8496.45148,1.28313.64588l2.78338-2.90228H34.893C34.49372,39.70829,33.10389,40.703,31.74073,41.67867Zm19.38687-1.33,2.5418,1.18963a1.71529,1.71529,0,0,0,.9731.18761l2.477-.72718-4.99826-1.542C51.8,39.767,51.46645,40.06635,51.1276,40.34869ZM25.35885,41.7262a1.68765,1.68765,0,0,0,.97479-.1891l2.53961-1.18857c-.33716-.28091-.67071-.58028-.99363-.89181L22.881,40.99864l.73443.21561C24.59012,41.50042,25.27341,41.701,25.35885,41.7262Zm20.66944-2.30393,2.73814,1.9601c.46216-.282.915-.58953,1.34871-.91583l-2.23142-1.04427ZM29.88556,40.46654c.43783.32914.89069.63664,1.34874.91571l2.73784-1.96H32.11671Zm-8.377.1291a2.40947,2.40947,0,0,0,1.14835-.08858l4.79332-1.47884c-.187-.19252-.37326-.39252-.55534-.59643l-7.461,1.533c-.01458.003-.0305.00625-.04654.00806Zm35.8216-.09276.01734.00541a2.388,2.388,0,0,0,1.14675.08674l2.11586-.62129-7.50346-1.5418c-.17893.20031-.36531.40023-.55584.59628Zm-8.18222-1.08061,1.44086.67432c.1299-.10643.51486-.42429.78994-.67432Zm-20.519,0c.27508.24458.6549.566.78331.67382l1.44-.67382Zm32.09531.02786a4.23687,4.23687,0,0,0,1.42321.07235l1.97468-.57982L53.839,37.56346c-.10711.13466-.21776.27-.33032.40411l2.48071.50968c3.87523.79616,4.59213.94345,4.73393.97752Zm-42.86747.07327a4.24822,4.24822,0,0,0,1.41968-.0735l7.21633-1.48253c-.10743-.12814-.21638-.26161-.32987-.40406L15.87876,38.94263ZM28.2565,35.647v3.3329l23.56664-.001-.00062-3.3319Zm24.04086,2.57426v.4443c.02547-.02724.32286-.34572.34788-.37273Zm-24.85682.0714c.0239.02586.32033.34363.34473.36976v-.44067Zm-12.69076.12489c.0181.02.1266.11866.4697.07274l10.56565-1.41711c-.09787-.131-.19551-.265-.29158-.40012-.77971.05191-9.94915.66277-11.30595.75427q.01675.02745.03185.05617Zm39.46686-1.34418L64.78136,38.4903c.34637.0463.45249-.05368.46952-.07309l.4518-.79547c.0333-.05866.05785-.10182.07841-.13194l-.0026-.00134q.01749-.03321.03713-.065L54.50853,36.673C54.41668,36.80263,54.31893,36.93668,54.21664,37.07338Zm-1.91925.67441.70386.14022c.10451-.12081.26236-.31227.36258-.434l-1.06644-.143Zm-25.575-.294c.10167.12369.238.29026.3407.409l.72226-.14388v-.4134Zm25.575-.62058,1.41972.18555c.09415-.12216.21779-.30763.30434-.42518l-1.72406-.11427Zm-26.23217-.23963c.09012.12261.209.28533.29917.40234l1.42092-.18737v-.32906Zm-12.87508.28785a3.415,3.415,0,0,0,.90577-.00169l11.03616-.73271c-.098-.14747-.19359-.29553-.28544-.44216h-12.531c.07436.12028.16344.2803.25594.44631.07025.12614.14092.25309.20472.36151A.665.665,0,0,0,13.19014,36.88148Zm41.67956-.73424,11.02979.73209a3.42921,3.42921,0,0,0,.91149.002.66094.66094,0,0,0,.41089-.36447l.46039-.80856.002-.00341H55.15507C55.06322,35.85159,54.96769,35.99972,54.8697,36.14724Zm-2.57231-.14114,2.04586.12695c.09177-.13379.22864-.34391.31527-.47707H52.29739ZM25.42773,35.656c.08717.13385.22017.33806.31148.47118l2.0461-.127V35.656Zm43.61513-1.81091-12.049.00073a1.563,1.563,0,0,0-1.21642.79c-.09323.174-.19344.35307-.29833.53316l12.99395-.00019c.2935-.01941.32051-.06392.386-.17142-.00008,0,.40437-.67251.43222-.71862a.52765.52765,0,0,0,.07413-.23281.14648.14648,0,0,0-.02233-.08363C69.28886,33.87235,69.18381,33.85029,69.04286,33.84507ZM43.15847,35.169H54.85589c.15876-.26238.3103-.5276.4508-.789a2.32522,2.32522,0,0,1,.4237-.53485H44.87494a1.71431,1.71431,0,0,0-1.26338.45847A1.75,1.75,0,0,0,43.15847,35.169Zm-18.01274,0H36.84246a1.75571,1.75571,0,0,0-.45363-.86545,1.71317,1.71317,0,0,0-1.26307-.45839H24.27053a2.38083,2.38083,0,0,1,.42386.53447C24.69685,34.384,24.966,34.86966,25.14573,35.169Zm-13.61168,0H24.52229c-.1057-.18124-.20618-.36056-.29968-.53478a1.61571,1.61571,0,0,0-1.21549-.78841l-12.05273-.00065c-.31038.00464-.31709.1555-.31932.2051a.47625.47625,0,0,0,.07539.23046l.36.59851c.03042.0506.05337.08874.068.11889l.00254-.00153C11.21447,35.11739,11.24316,35.14712,11.53405,35.169Z" style="fill: #fff"/>
      <g>
        <g>
          <path d="M30.35136,38.47026,30.34017,38.44c-.11284-.31942-.21433-.58122-.31422-.81122h-.70517l-.00879.0219c-.09973.24822-.20266.50482-.28258.77278l-.014.04683h-.375l1.033-2.3109h.15775l.99366,2.3109Zm-.42962-1.10466-.24534-.5662-.24166.5662Z" style="fill: #fff"/>
          <path d="M31.45209,38.50774a.86353.86353,0,0,1-.55733-.20219l-.01646-.01774-.00272-.032.073-.3378h.12259l.01343.02261a.49482.49482,0,0,0,.45519.30144.37522.37522,0,0,0,.36793-.38966c0-.2308-.19052-.30552-.41108-.392-.25237-.09909-.566-.22224-.566-.63636a.67114.67114,0,0,1,.75919-.66465.76387.76387,0,0,1,.49.16726l.02238.0203.001.03828-.10357.31087h-.124l-.01135-.03a.3374.3374,0,0,0-.331-.2411.30389.30389,0,0,0-.32733.29936c0,.23127.19611.30847.42307.39781.26276.10333.56036.22049.56036.60912A.77356.77356,0,0,1,31.45209,38.50774Z" style="fill: #fff"/>
          <path d="M33.05816,38.47721V36.48757a5.54959,5.54959,0,0,0-.61167.03708l-.07272.00815v-.32693h1.74262v.32845l-.07416-.00975a5.1752,5.1752,0,0,0-.5781-.03676v1.9894Z" style="fill: #fff"/>
          <path d="M35.24145,38.50774a1.12939,1.12939,0,0,1-1.21534-1.16924,1.14874,1.14874,0,0,1,1.22126-1.179,1.13679,1.13679,0,0,1,1.24939,1.13223A1.17023,1.17023,0,0,1,35.24145,38.50774Zm.03692-2.11383c-.50282,0-.81513.37624-.81513.98191a.79415.79415,0,0,0,.787.89793.71639.71639,0,0,0,.54231-.23136,1.06592,1.06592,0,0,0,.268-.681c0-.01431-.00048-.02805-.00144-.04132a.97023.97023,0,0,0-.18348-.6493A.76277.76277,0,0,0,35.27837,36.39391Z" style="fill: #fff"/>
          <path d="M38.57218,38.47034h-.00887l-.18117-.21218-1.26537-1.39874v1.61092H36.8107V36.20587h.21657s1.11513,1.20775,1.41976,1.53756V36.20587h.3064v2.26447Z" style="fill: #fff"/>
        </g>
        <g>
          <path d="M42.193,38.47034l-.00543-.0601c-.03149-.371-.08759-1.00828-.13426-1.4077-.315.5654-.54742,1.00277-.71715,1.394l-.01708.03952-.03071,0H41.2003l-.18988-.38934c-.12163-.25-.40037-.78357-.53079-1.03234l-.01758.14992c-.05738.48516-.11108.93812-.11108,1.24012v.06585h-.3641l.01263-.0764c.08088-.50155.26788-1.80624.29888-2.12869l.00608-.05938h.18108l.01295.02565c.2407.47782.51705,1.0178.82776,1.5418l.32349-.58937.53959-.97808h.1635l.00607.059c.09542.90759.178,1.60453.25238,2.13053l.01086.075Z" style="fill: #fff"/>
          <path d="M44.42048,38.47026l-.011-.03077c-.10772-.30727-.21193-.57587-.31422-.81074h-.705l-.007.01743c-.10293.257-.2049.51177-.28354.777l-.01661.04707h-.37321l1.03362-2.3109h.14464l.02477.02813.98136,2.28277ZM43.992,37.3656l-.24582-.566-.24134.566Z" style="fill: #fff"/>
          <path d="M46.26787,38.47026l-.024-.01926-.20251-.27819c-.23958-.3103-.33-.42738-.36121-.47789l-.00464.004-.22983-.27h-.02238v1.04129h-.406V36.206h.72738c.50394,0,.75935.18165.75935.53975a.67908.67908,0,0,1-.59025.63332l.87315,1.09124Zm-.84454-1.28791c.02462.001.05307.00176.08375.00176a1.26113,1.26113,0,0,0,.24039-.01982.38668.38668,0,0,0,.34667-.38095.3014.3014,0,0,0-.28833-.32837,1.20188,1.20188,0,0,0-.17885-.01007c-.069,0-.14145.00263-.20363.00535Z" style="fill: #fff"/>
          <path d="M47.33805,38.47721V36.48757a5.54686,5.54686,0,0,0-.611.03708l-.07289.00815v-.32693h1.7431v.32845l-.07416-.00975a5.1752,5.1752,0,0,0-.5781-.03676v1.9894Z" style="fill: #fff"/>
          <rect x="48.60596" y="36.20587" width="0.38823" height="2.26446" style="fill: #fff"/>
          <path d="M51.16958,38.46954l-.18077-.21138L49.723,36.85973v1.61061h-.30575V36.20587h.2164s1.11482,1.20759,1.41961,1.53764V36.20587h.30639v2.26471Z" style="fill: #fff"/>
        </g>
      </g>
    </g>
  </g>
</svg>
