<svg id="f9214629-3dde-4144-acf9-d1b28c113769" data-name="Layer 1" xmlns="http://www.w3.org/2000/svg" viewBox="0 0 80 80">
  <g>
    <polygon points="21.588 19.586 21.588 20.531 40 17.399 58.412 20.534 58.412 19.587 40 16.178 21.588 19.586 21.588 19.586" style="fill: #fff"/>
    <path d="M58.41173,20.52353l-18.41193-3.13-18.41153,3.13.0463,3.08934s9.25165-4.016,18.36523-4.01542c9.114.00067,18.36565,4.01512,18.36565,4.01512l.04628-3.089Z" style="fill: #e20613"/>
    <path d="M39.9998,19.47408c-11.50318,0-18.36678,4.06754-18.36678,4.06754l.13925,9.26362c0,4.25222,1.3897,22.34445,18.22753,32.19476,16.84705-9.85031,18.22756-27.93662,18.22756-32.1958l.13923-9.26258s-6.85937-4.06754-18.36679-4.06754Z" style="fill: #1d1d1b"/>
    <path d="M57.67537,24.20586s-5.98378-3.81114-17.67557-3.81114c-11.69139,0-17.67517,3.81114-17.67517,3.81114l.18418,8.59824c0,3.36849.64437,21.41453,17.491,31.20785C56.84685,54.22016,57.491,36.17355,57.491,32.8042l.18437-8.59834Z" style="fill: #ffec00"/>
    <path d="M36.61526,52.35154s-.0744-.09716-.145-.02677a.40816.40816,0,0,1-.32572.17137.83776.83776,0,0,1-.32572-.07613c-.09142-.04017-.21919-.101-.21919-.101a2.23168,2.23168,0,0,0-.61529-.13541,1.42965,1.42965,0,0,0-.96586.35269,1.02234,1.02234,0,0,0-.22664,1.1334,1.67721,1.67721,0,0,0,.57721.60973c.31062.1905.44564.26089.44564.26089l.53936.2475.499.18857s.7201.21537.80769.76007a1.16311,1.16311,0,0,1-1.23439,1.31473,1.57522,1.57522,0,0,1-1.60775-.71646.78641.78641,0,0,1-.065-.56383l.04207-.08379.03788-.01911a.51133.51133,0,0,0,.301.08376.43824.43824,0,0,0,.36587-.49153.42007.42007,0,0,0-.44581-.34658c-.12566.01148-.68588.15608-.69735.97162a1.5429,1.5429,0,0,0,.73177,1.24969,2.198,2.198,0,0,0,1.12.301,3.12378,3.12378,0,0,0,1.086-.26279,1.711,1.711,0,0,0,.90315-1.39468,1.39612,1.39612,0,0,0-.583-1.29177,3.20632,3.20632,0,0,0-.41542-.24366c-.19814-.09142-.67439-.32018-.67439-.32018l-.48389-.2207-.29339-.16411-.16371-.11055s-.39249-.30831-.183-.64379c.20962-.33508.81535-.20962.81535-.20962a2.52982,2.52982,0,0,1,.83446.36188,2.58638,2.58638,0,0,1,.57913.57913l.15245.24787.01912.03443.12949-.04591a7.06384,7.06384,0,0,1-.24-.80023c-.03825-.236-.07613-.59979-.07613-.59979Z" style="fill: #1d1d1b"/>
    <path d="M42.41659,55.57658a.46045.46045,0,0,0,.30486.145.41641.41641,0,0,0,.42308-.43837.43839.43839,0,0,0-.324-.40011.64787.64787,0,0,0-.71991.37717,1.36754,1.36754,0,0,0-.10672.91843,1.627,1.627,0,0,0,.81134,1.05538,1.859,1.859,0,0,0,1.45166.1029,2.70914,2.70914,0,0,0,1.05194-.7352,4.12047,4.12047,0,0,0,.71989-1.20036l.17137-.42689.2058.00382a.75134.75134,0,0,0,.48773-.13694,1.53391,1.53391,0,0,0,.32781-.38865l.02678-.06847-.12968-.0612a.58475.58475,0,0,1-.35458.21343,1.91154,1.91154,0,0,1-.41887-.01529l.19814-.52941s.22836-.46133.29339-.568c.06465-.10635.33128-.44946.33128-.44946a6.25468,6.25468,0,0,0,1.07832-.11438,5.468,5.468,0,0,0,.85724-.24366l.65563-.27045.15989-.088-.04972-.1293a7.25259,7.25259,0,0,1-1.46276.3087,5.14582,5.14582,0,0,1-1.42145-.00765l-.99073-.15263a4.45013,4.45013,0,0,0-.53325-.05315,5.0636,5.0636,0,0,0-.705.08376,2.36064,2.36064,0,0,0-.68587.26661c-.213.16029-.71989.53362-.48771,1.10511.23257.5715,1.18124.26662,1.31473-.15644l.05317-.137.0153-.07611-.08-.03061-.09524.11056s-.35422.29722-.62888.10672a.32359.32359,0,0,1-.06081-.48771.93565.93565,0,0,1,.5298-.28957,2.43887,2.43887,0,0,1,.88744.04934l.57915.10672s.32016.06083.33545.06083.11822.01529.11822.01529l-.202.22492a2.83053,2.83053,0,0,0-.49919.68969c-.2058.40778-.301.62083-.301.62083l-.01914.03061a1.26755,1.26755,0,0,0-.42268.12967,1.007,1.007,0,0,0-.27082.25132l-.07613.13733.1029.08758a.62569.62569,0,0,1,.26279-.17137.38431.38431,0,0,1,.25553.01875s-.20962.51832-.3087.705a3.65562,3.65562,0,0,1-.503.78493,1.34478,1.34478,0,0,1-.94866.55236,1.19516,1.19516,0,0,1-1.063-.44182,1.137,1.137,0,0,1-.23258-.62122.82716.82716,0,0,1,.09143-.37333Z" style="fill: #1d1d1b"/>
    <polygon points="21.588 19.603 21.588 18.498 40.001 15 58.412 18.498 58.412 19.603 40 16.197 21.588 19.603 21.588 19.603" style="fill: #008d3f"/>
    <path d="M39.57712,21.83615a1.44094,1.44094,0,0,1-.06616.31539c-.04285.10643-.15991.18017-.15186.252a.33685.33685,0,0,0,.19967.21582,1.14906,1.14906,0,0,0,.27924.13542c.109.02736.24711.10816.28728.01608.04015-.092-.02067-.20657-.08722-.31558-.11477-.18888-.17291-.234-.3435-.49509-.03635-.05574-.06541-.11618-.11745-.124Z" style="fill: #1d1d1b"/>
    <path d="M38.72945,42.21338a7.1275,7.1275,0,0,1,1.28165.99818c.24118.23907.44621.55007.51545.50531.09908-.12011-.06313-.35306-.337-.62848a8.12418,8.12418,0,0,0-1.01292-.84212c-.37409-.25132-1.06265-.85264-1.06265-.85264l-.57071-.482-.63346-.58526-.48007-.53315s-.3718-.45549-.43148-.5427c-.05948-.08722-.23449-.36922-.38-.60812-.13006-.21364-.38042-.5469-.40433-.57569-.13522-.16294-.44506-.09755-.80387-.30907a1.31416,1.31416,0,0,1-.542-.49251.20575.20575,0,0,0-.083-.0962l-.2276-.15989-.1312-.08694a1.09591,1.09591,0,0,0-.22492-.13569c-.12528-.0545-.40472-.21737-.40472-.21737l-.49956-.318s-.19548-.15846-.2609-.20991a1.94687,1.94687,0,0,0-.18934-.12174.51022.51022,0,0,0-.10175-.0415c-.02409-.00123-.12758-.01072-.12758-.01072a.20481.20481,0,0,0-.19393.0901c-.09792.11475-.07477.05411.08453.7025.06293.25619.05682,1.15875.12452,1.43235a4.74261,4.74261,0,0,0,.35919.86259,1.3116,1.3116,0,0,1,.04246.25046,1.48939,1.48939,0,0,0,.00651.2604c.07573.46542.757.15931.9079.79841a2.43984,2.43984,0,0,1-.08854,1.25926s-.14748.31252-.354.36148c-.20676.04936-.52655-.40739-.75875-.77843a6.57441,6.57441,0,0,1-.47623-.99341,1.365,1.365,0,0,0-.16066-.296c-.10213-.163-.185-.13389-.29951-.39208-.11438-.25821-.013-.36293-.065-.58755-.02907-.12576-.057-.13858-.09562-.31683s-.08876-.74468-.08876-.74468l-.07248-.52759s-.02562-.24-.05852-.39047a8.60339,8.60339,0,0,1-.15473-1.03681l-.02085-.209-.0088-.21642a.82173.82173,0,0,1,.01894-.21105.79873.79873,0,0,1,.07842-.19585s.10537-.17854.12354-.22149a3.75633,3.75633,0,0,1,.23546-.29567,2.80932,2.80932,0,0,1,.29892-.20829.67276.67276,0,0,1,.35346-.10539,2.7257,2.7257,0,0,1,.37832.03576c.32974.04123,1.00832.22063,1.178.26567a2.49926,2.49926,0,0,1,.50263.1881c.37621.20523.49059.11886.19068-.116a5.30331,5.30331,0,0,1-.42114-.37725,4.30006,4.30006,0,0,1-.34714-.32659c-.10194-.11725-.39515-.54892-.39515-.54892L32.2591,33.009s-.0983-.10911-.114-.11783c-.0153-.00869-.06542-.04761-.06542-.04761a1.1082,1.1082,0,0,1-.246-.01712c-.12546-.0244-.184.15138-.184.15138a5.20483,5.20483,0,0,1-.54682.81611,10.58033,10.58033,0,0,0-.93125,1.11257c-.22913.37133-.1796.77747-.29779.96566a1.27985,1.27985,0,0,0-.14479.22273c-.11571.29128.30488.45253.20848.77594-.15263.512-1.3551,1.02048-1.51479.93546-.16487-.08768-.03-.781.026-1.00622a2.84375,2.84375,0,0,1,.24042-.57406.46632.46632,0,0,0,.06828-.16172c.01281-.06657.01758-.21631.02564-.30008a1.83961,1.83961,0,0,1,.04187-.21585,2.43676,2.43676,0,0,1,.11151-.259c.10616-.23161.49727-.77107.77843-1.28518.184-.33594.26127-.53945.44621-.87473.1708-.30936.46151-.77986.46151-.77986s.12432-.24042.18247-.33089.18093-.265.29607-.43473a2.00688,2.00688,0,0,1,.29683-.43884.89747.89747,0,0,1,.37488-.2323,1.01119,1.01119,0,0,1,.66061.03194,1.53779,1.53779,0,0,1,.60629.3305,2.3761,2.3761,0,0,1,.29437.29828l.08184.12012.05032.03059.15873.10051.35959.23878s.8534.58068.89968.61108c.04647.03051.19814.15674.22952.16622.03135.00955.25819-.23679.70383-.54463a3.27239,3.27239,0,0,1,.86891-.423,1.43467,1.43467,0,0,0,.37161-.30346,7.06894,7.06894,0,0,0,.42881-.58677,2.65573,2.65573,0,0,1,.4422-.43541s.03174-.03175.43913-.49106a4.44654,4.44654,0,0,0,.58717-.80712l.22378-.44727s.3236-.69513.42726-.97066a1.30527,1.30527,0,0,0,.10406-.36759.3366.3366,0,0,0-.06408-.21173c-.07975-.14-.16352-.0764-.3173-.04417a1.81174,1.81174,0,0,1-.77671-.06618c-.27446-.047-.4179-.12767-.69255-.17454a2.3706,2.3706,0,0,0-.7201-.06512,1.01438,1.01438,0,0,0-.16965.03539,1.4073,1.4073,0,0,0-.31788.13226.80937.80937,0,0,1-.37526.088.59413.59413,0,0,1-.26355-.032.43157.43157,0,0,1-.15568-.0917.38868.38868,0,0,1-.07325-.08358c-.00306-.03012-.012-.02811.01586-.076a.1119.1119,0,0,1,.06408-.056l.128-.032.19548-.052c.01606-.004.1878-.06.26374-.08386a1.17174,1.17174,0,0,0,.15971-.0678s.04665-.07317.02791-.11554c-.02123-.0479-.12393-.05221-.12393-.05221s-.14344.052-.1597.05576c-.01625.00382-.24348.07593-.24348.07593s-.17977.04007-.3194.07211a2.90682,2.90682,0,0,1-.33968.04791l-.06-.01616s-.06925-.04571-.07977-.092c-.00956-.04246-.01626-.07517-.02409-.12354a1.02112,1.02112,0,0,1-.02372-.45941.82482.82482,0,0,1,.06561-.18056.99179.99179,0,0,1,.078-.14307l.11169-.17987.20772-.30736a.7967.7967,0,0,1,.20731-.15827.82342.82342,0,0,1,.376-.1136,2.53776,2.53776,0,0,0,.41542-.06772,1.60084,1.60084,0,0,0,.39532-.14391s.55256-.20361.88995-.36885c.35343-.173.50874-.35862.8752-.50177a2.9003,2.9003,0,0,1,.40357-.1293.07458.07458,0,0,0,.036-.0481c.01625-.05929-.075-.08645-.1362-.08-.05411.00555-.18036.06293-.20885.001-.02256-.04925.11534-.07765.11534-.07765s.06445-.03052.066-.06714c.00192-.05384-.09411-.01892-.13618-.02362a1.74206,1.74206,0,0,1-.37985-.09965,1.97866,1.97866,0,0,0-.451-.10443,1.49472,1.49472,0,0,0-.4114.05222c-.09983.02391-.10347-.07335-.06407-.0919a.91978.91978,0,0,1,.48579-.15119,1.12052,1.12052,0,0,1,.27735.02726.53478.53478,0,0,0,.28956-.05891c.05584-.05566-.179-.05232-.28939-.09668-.10154-.04093-.258-.05107-.25417-.11888.00362-.0679.08032-.03118.13349-.04408a1.493,1.493,0,0,1,.17635-.02468c.1247-.01739.1358-.0282.31941-.04426a1.53893,1.53893,0,0,1,.44754.06s.2758.12376.41121.18782a1.47069,1.47069,0,0,0,.2999.09583.56774.56774,0,0,0,.3393-.06408c.14765-.0919.065-.1512.01147-.23487a.37626.37626,0,0,1-.01911-.408c.08337-.18888.1266-.40673.15147-.42727.02869-.024.1465.14381.22186.2142a3.68562,3.68562,0,0,1,.9632.90505c.02677.04216.153-.02505.5447.0349a1.60723,1.60723,0,0,1,.8186.57905.28146.28146,0,0,0,.20388.09611l.18745.02391.68317.01185a1.18694,1.18694,0,0,1,.48733.01224c.1247.04687.54128.325.35193.43081-.13236.07421-.25745-.08807-.37717-.09649a.85984.85984,0,0,0-.33011.04906c-.26432.06666-.83313.2385-.627.30764.01645.00564.04362.01177.04362.01177l.104.01606a3.4816,3.4816,0,0,1,.39974.117,3.67371,3.67371,0,0,1,.54585.31329,1.27747,1.27747,0,0,0,.30336.17757,2.498,2.498,0,0,0,.31978.021,1.31439,1.31439,0,0,1,.4005.132,3.12569,3.12569,0,0,1,.49766.376c.09831.07068.18055.08206.25437.17807a.172.172,0,0,1,.03864.058c.02677.08827-.14421.03606-.23526.02123a.82225.82225,0,0,1-.23447-.10874,1.31987,1.31987,0,0,0-.35-.16218,1.0771,1.0771,0,0,0-.28384.00143c-.10633.00488-.16563.0218-.272.02325a1.84041,1.84041,0,0,1-.46707-.05118c-.202-.04207-.30143-.12135-.50339-.16285-.22494-.04628-.62657-.24023-.58719-.04734.01951.09362.23334.17214.23334.17214s.14346.07985.28308.13991a.62122.62122,0,0,1,.21613.15177l.09563.07182s.09983.13588.2276.28755a.49266.49266,0,0,0,.35153.14784,2.42338,2.42338,0,0,1,.42766.06,2.232,2.232,0,0,1,.591.23955,2.1707,2.1707,0,0,1,.35957.31166c.13159.15578.05583.23563.03977.25151-.01568.01586-.01185.00813-.02792.01586-.01567.00786-.17978-.19555-.17978-.19555l-.1159-.09985a1.12509,1.12509,0,0,0-.26356-.12785c-.14765-.04791-.19548-.01587-.19548-.01587a2.3479,2.3479,0,0,1-.58716.08.76665.76665,0,0,1-.41542-.116l-.17176-.11571s-.25935-.24291-.26777-.12768c-.00574.07776.11362.16421.11362.16421l.13925.1375c.10366.10214.14649.15349.26661.26137a.33845.33845,0,0,0,.19546.10768s.06388.01606.088.02007c.02409.00411.06771.016.06771.016s.04015.01586.2276.0917a1.8065,1.8065,0,0,1,.38786.23976.1089.1089,0,0,0,.04783.02.90536.90536,0,0,1,.09983.036c.01568.00392.06388.00392.17176.0199.10787.01587.06807.08386.06807.08386l-.02027.02811-.088.05968a1.14585,1.14585,0,0,1-.19586.036.57627.57627,0,0,1-.19164-.04007l-.24328-.09179s-.24405-.06379-.2957-.07182c-.052-.008-.27159-.05194-.30754-.06a1.14144,1.14144,0,0,1-.176-.06379c-.02792-.01587-.08376-.028-.21535-.092a2.01218,2.01218,0,0,0-.34772-.19163.38342.38342,0,0,0-.38788.02332c-.21154.14671.32018.17043.58679.30191.38941.19232.61013.33451.70308.5426a.79927.79927,0,0,0,.18859.28432,1.58852,1.58852,0,0,1,.399.28336c.06731.07861.07726.14391.1442.22252.15071.17615.44412.16755.50264.3172.0547.14049-.23679.07766-.39018.06283-.27388-.02658-.33968-.27722-.59558-.379-.14536-.05776-.23755-.05844-.386-.10778-.26815-.08932-.39476-.206-.66521-.28909-.16182-.04983-.45826-.26565-.42306-.09983a.386.386,0,0,0,.044.09572c.01184.02391.07994.11188.07994.11188a1.40182,1.40182,0,0,0,.132.15177,3.56127,3.56127,0,0,0,.46322.29952,1.91533,1.91533,0,0,1,.46325.39552,1.42219,1.42219,0,0,1,.10786.17989c.03748.0831.01186.10787.06809.22358a.55864.55864,0,0,0,.15568.2077c.18093.17617.37106.14068.60325.23584.06235.02572.0677.03567.1358.10776s-.01224.10367-.01224.10367a1.67507,1.67507,0,0,1-.42347.05193,1.25687,1.25687,0,0,1-.52328-.18752,1.08464,1.08464,0,0,1-.34313-.30363c-.02027-.01187-.07191-.068-.11206-.096a1.10287,1.10287,0,0,0-.23565-.07593c-.09256-.02552-.14726-.02973-.23945-.05564-.12738-.03578-.25974-.092-.31978-.112a.39586.39586,0,0,0-.29838.01483c-.20044.11847.31022.19938.47012.36865.08147.08606.11437.14622.19164.23573a.91251.91251,0,0,0,.15607.17156.93354.93354,0,0,0,.13962.076s.12394.05594.30334.15578a1.72961,1.72961,0,0,1,.3917.37946l.12777.19566.07611.112.0199.05182.02793.06379a.80357.80357,0,0,0,.15989.15989c.06771.03978.05584.07593.05584.07593s-.008.02391-.05584.05184c-.0482.028-.07192.0041-.14-.01578-.06808-.02-.1117-.08406-.17174-.13189-.06007-.0479-.1247-.16829-.236-.23573a1.13144,1.13144,0,0,0-.27121-.09581c-.04781-.01588-.16792-.09181-.21573-.112-.04783-.02008-.17176-.07584-.17176-.07584a2.34286,2.34286,0,0,0-.37219-.17146c-.132-.03606-.04781.04389-.04781.04389a1.09274,1.09274,0,0,0,.233.25973c.14726.098.35459.18448.28649.26317-.04512.05251-.10672.03357-.17556.02564a.55881.55881,0,0,1-.24329-.14517,1.66269,1.66269,0,0,0-.30372-.116c-.2475-.07985-.15568.056-.09984.12785a.465.465,0,0,0,.132.11189l.16753.07593.07613.02391s.0677.01185.29148.06389a.85892.85892,0,0,1,.34732.1598,3.54147,3.54147,0,0,0,.28767.23572.90416.90416,0,0,0,.42766.16765c.0918.01185.08759.07593.08759.07593a.33723.33723,0,0,1,.008.07985.04719.04719,0,0,1-.044.036c-.01988,0-.02793.00785-.05163.02a.78586.78586,0,0,1-.11974.02793,2.59378,2.59378,0,0,1-.44754-.05595,1.25323,1.25323,0,0,1-.38367-.19164,2.56772,2.56772,0,0,0-.32363-.148.849.849,0,0,0-.33929-.01586c-.01988.008-.088.0199-.20388.05192-.11591.03194.02793.07583.02793.07583l.08415.008.19967.016a1.95129,1.95129,0,0,1,.37946.088,1.11679,1.11679,0,0,1,.40318.30754,1.39075,1.39075,0,0,0,.24405.19164l.0918.06.04783.03586.01185.032a.29637.29637,0,0,1-.01185.03605.093.093,0,0,1-.036.03586.5395.5395,0,0,0-.06389-.00785c-.01988,0-.15071-.06923-.24787-.11207a1.3763,1.3763,0,0,0-.25934-.11169.79555.79555,0,0,0-.24368-.024c-.02754.00774-.23181.036-.38749.0479a2.25382,2.25382,0,0,1-.47739-.00832c-.26432-.03212-.61356-.23984-.65794-.18159-.09143.121.18821.15644.32247.23429a3.03218,3.03218,0,0,0,.50531.20341,2.309,2.309,0,0,1,.37143.11591c.29913.13923.39131.34493.63115.563a.70054.70054,0,0,0,.41963.2c.1534.02226.15149.00372.39515-.04419.24329-.04782.39286-.2801.46323-.19538.01377.01675.008.03157.00421.05557a.40584.40584,0,0,1-.02409.068.69982.69982,0,0,1-.07192.08377,1.39244,1.39244,0,0,1-.29951.17186,1.51312,1.51312,0,0,1-.57531.08788,1.8719,1.8719,0,0,1-.651-.21565l-.27543-.11591s-.12738-.06014-.21191-.09179a5.37484,5.37484,0,0,0-.60706-.14011c-.14575-.03892-.23984-.07976-.37143-.10749-.132-.02773-.05852.02458-.044.044a.58457.58457,0,0,0,.2475.15942c.13884.06722.23676.05345.37946.11207a2.45064,2.45064,0,0,1,.38366.21173,1.20512,1.20512,0,0,1,.23525.20753l.29225.24777s.0677.05595.07573.07995a.31025.31025,0,0,1,.02372.17979c-.01569.09571-.09563.02793-.09563.02793l-.07574-.04793-.07612-.07182-.12394-.10012a1.37347,1.37347,0,0,0-.28344-.18752,1.31762,1.31762,0,0,0-.39554-.11591s-.19164-.02813-.18361.03194c.00766.06.05165.064.20351.10384a.78052.78052,0,0,1,.25169.11573,2.01477,2.01477,0,0,1,.26777.24386.68876.68876,0,0,1,.14383.25151,1.14343,1.14343,0,0,0,.19967.24385c.14346.1399.21957.0917.21154.1596a.09266.09266,0,0,1-.07192.07985s-.03595-.004-.05162-.004a.49962.49962,0,0,1-.09182-.03577,2.1988,2.1988,0,0,1-.192-.12s-.23563-.19155-.26355-.21154-.25169-.1878-.25169-.1878-.132-.084-.2276-.13189a2.57338,2.57338,0,0,0-.2957-.11972,1.04741,1.04741,0,0,0-.20351-.03205,1.54283,1.54283,0,0,1-.2559-.05967,1.80764,1.80764,0,0,1-.35-.229.97506.97506,0,0,0-.19127-.05192,1.25288,1.25288,0,0,0-.10633.426,2.98318,2.98318,0,0,0,.3741,1.673,8.602,8.602,0,0,0,1.46353,1.93863,4.43821,4.43821,0,0,1,.386.24452,12.83337,12.83337,0,0,1,1.3262,1.08006,13.16925,13.16925,0,0,1,.941,1.12117,6.10818,6.10818,0,0,1,.45367.73942,6.28165,6.28165,0,0,1,.31749.94748.67749.67749,0,0,0,.0237.12088.0927.0927,0,0,0,.05815.04591l.18782.0065a2.30826,2.30826,0,0,0,.37335-.05088,4.41374,4.41374,0,0,0,.69428-.30333,3.37111,3.37111,0,0,0,.48312-.3389s.04973-.04246.30755-.329a2.97005,2.97005,0,0,0,.48618-.87827,4.09767,4.09767,0,0,0,.15071-1.00221,6.30083,6.30083,0,0,0-.03365-1.0922s-.0964-.78264-.15531-1.04859-.1993-.69839-.1993-.69839-.0983-.3871-.13-.632c-.03137-.24471-.0375-.64082-.0375-.64082a4.51977,4.51977,0,0,1,.08034-.69265,3.02376,3.02376,0,0,1,.355-.89884A3.277,3.277,0,0,1,49.95878,33.5a2.80875,2.80875,0,0,1,.69809-.63536c.23678-.1707.54472-.44421.64417-.38061.10978.07029-.10864.20924-.18132.28106a4.54037,4.54037,0,0,0-.81859,1.00268,3.2566,3.2566,0,0,0-.39821.98537,2.43631,2.43631,0,0,0-.02793.68644c.00842.10425.06581.06617.06581.06617a9.78607,9.78607,0,0,0,.92492-.84517c.35269-.39409.66637-1.09642.78878-1.10272.08261-.00422.12164.184.10288.27a2.03908,2.03908,0,0,1-.22224.65077,3.75035,3.75035,0,0,1-.44908.65612,3.104,3.104,0,0,0-.45444.72689,1.32623,1.32623,0,0,0-.09524.90408s.02754.24014.13541.23659c.18093-.006.57645-.50608.835-.91374.19088-.301.26011-.64684.386-.82845.11246-.16172.213.26173.16487.51152a2.328,2.328,0,0,1-.52522.98127,1.37221,1.37221,0,0,0-.30449.80033,5.23767,5.23767,0,0,0-.05928.56556,4.91411,4.91411,0,0,0,.08568.97418,7.09111,7.09111,0,0,1,.1182.86259,3.9345,3.9345,0,0,1-.342,1.88374,4.9686,4.9686,0,0,1-.43761.63193,4.01908,4.01908,0,0,1-.41695.37276,5.568,5.568,0,0,1-.63957.34962s-.31175.109-.35574.11935a.14885.14885,0,0,0-.07384.04935s.02985.06082.04094.0853c.01148.02448.09984.23947.09984.23947a4.626,4.626,0,0,1,.12852.54814,1.0433,1.0433,0,0,1-.04091.4816c-.03367.17748-.11093.09487-.13083.44411-.01722.30715.12317.46094.09716.80558-.01111.15073-.18324-.189-.264-.33393a2.00121,2.00121,0,0,1-.1377-.91844,1.59258,1.59258,0,0,0-.05815-.40547,1.3788,1.3788,0,0,0-.22721-.46783c-.09219-.11936-.18934-.18667-.22186-.17558-.03214.01071-.03443.0746-.03558.10674a.66894.66894,0,0,0,.078.1706c.01491.02448.13158.23639.13158.23639a2.26553,2.26553,0,0,1,.07115.47776,2.74443,2.74443,0,0,1-.0765.705,3.0455,3.0455,0,0,1-.7356,1.37327,2.12135,2.12135,0,0,0-.41121.56918c-.176.35345-.02524.50914-.0895.55275-.06771.04591-.207-.20274-.24482-.37219a.60523.60523,0,0,1,.04668-.407,3.216,3.216,0,0,1,.202-.412l.2123-.36033a4.48909,4.48909,0,0,0,.33318-.83963,1.91758,1.91758,0,0,0-.00995-.744s-.01147-.12815-.09945-.12357a.23852.23852,0,0,0-.18743.1775c-.07344.19278.02983.15837-.0811.48044-.08761.25438-.11093.22071-.15684.371a1.66338,1.66338,0,0,0-.08071.47777c.00421.11246-.05852.06618-.05852.06618a1.07354,1.07354,0,0,1-.10558-.451,2.5604,2.5604,0,0,1,.02027-.34656,4.8718,4.8718,0,0,1,.11285-.55007,2.07029,2.07029,0,0,0,.07536-.62886c-.02143-.30028-.12738-.35613-.12738-.35613s-.0264-.04094-.14307-.03328c-.11628.008-.11093.21612-.11093.21612s-.0352.29646-.08148.48121a3.19224,3.19224,0,0,1-.60132,1.20993,5.39183,5.39183,0,0,1-.83046.89012c-.18552.16142-.75548.57684-.75548.57684l-.66711.44449a1.91437,1.91437,0,0,0-.38751.56614,1.23875,1.23875,0,0,0-.04475.82969,1.30384,1.30384,0,0,0,.22646.49153,1.09107,1.09107,0,0,1,.19048.37832,1.519,1.519,0,0,1,.01148.26432c.005.08913.01722.13886.01569.228-.00268.14153.023.24174-.057.35841a.67682.67682,0,0,1-.2211.16373s-.18093.08071-.2888.14612a7.26248,7.26248,0,0,0-2.18077,1.8954c-.2035.24328-.0543.22912-.27235.51869-.13043.17329-.43416.17213-.54585.37832-.15149.28115.34618.55886-.22991.80789a3.15053,3.15053,0,0,1-2.04152-.00919c-.0696-.27619.24866-.5929.36168-.71646.51965-.568.98367-.58258,1.15312-1.05193.03595-.09985.023-.18591.43569-.49192a15.64068,15.64068,0,0,0,1.95735-1.67124,1.72373,1.72373,0,0,0,.39821-.54892.33589.33589,0,0,0-.07574-.35421l-.2077-.33892-.3986-.71341s-.16676-.37754-.25895-.59674c-.09219-.2188-.26777-.80865-.26777-.80865a5.02311,5.02311,0,0,1-.14957-.87251,3.28042,3.28042,0,0,1,.20886-1.5806c.25476-.75509.54891-.853.88133-1.87894.07115-.22.0677-.60918-.04591-.59-.10864.018-.06847.3236-.127.52655-.228.79143-.65144,1.11161-.923,1.90036a3.75161,3.75161,0,0,0-.2253,1.40921,3.38254,3.38254,0,0,0,.07115.81286,3.08039,3.08039,0,0,0,.1423.51182c.04246.14075.15682.4047.15682.4047a3.81554,3.81554,0,0,1,.21383.59711.6665.6665,0,0,1,.0329.21612c-.00994.14652-.05738.17827-.12814.311-.08684.16334-.03328.26089-.31444.32131a2.10475,2.10475,0,0,1-.75816-.1113,10.39391,10.39391,0,0,0-3.43274-.45367,3.94242,3.94242,0,0,1-.6744.12852c-.24136-.00343-.36567-.19317-.60723-.12125-.05032.01492-.06561.04933-.10884.07918-.35537.2471-.08453.65718-1.01731.44372-.5736-.13159-1.26788-.48121-1.14661-.7027.16027-.29262.37678-.34082.82892-.52558a4.038,4.038,0,0,1,1.35412-.15263,5.67046,5.67046,0,0,1,.73865-.14076,1.525,1.525,0,0,1,.63728.05394l.91768.08071,1.75616.023s.31405-.02448.4399-.04859c.12546-.02409.22568-.27235.29339-.38941a.39035.39035,0,0,0-.00153-.29146l-.05317-.0815-.1662-.26929-.3089-.52138-.34311-.6824s-.224-.47586-.3439-.78991a5.97011,5.97011,0,0,1-.267-.80712,4.24336,4.24336,0,0,1-.14231-.86566,3.13061,3.13061,0,0,1,.083-1.07889Z" style="fill: #1d1d1b"/>
    <path d="M50.04407,41.58948a2.51955,2.51955,0,0,0,.42116-1.46544,6.11529,6.11529,0,0,0-.07421-1.14126l-.02334-.0502s-.065-.084-.1052.02668c.00613.09888.01837.1772.01837.1772a4.76075,4.76075,0,0,1-.15952,1.81268c-.26813.78073-.84882,1.10014-1.047,1.41648-.26622.424.68816-.38215.9697-.77614Z" style="fill: #fff"/>
    <path d="M46.24256,43.11555a.21456.21456,0,0,0-.15415.19241c-.00306.14994.03672.27924.03329.45827-.00421.22873-.21538.495-.07918.581.23333.14765.43377-.894.36262-1.04812-.07116-.15454-.14-.1859-.16258-.18361Z" style="fill: #fff"/>
    <path d="M43.63416,50.33374a.1686.1686,0,0,0-.12739.0088.12079.12079,0,0,0-.078.119s-.01645.09258.05125.10251c.06808.00995.18016-.15529.179-.17443a.18184.18184,0,0,0-.02485-.05584Z" style="fill: #fff"/>
    <path d="M41.181,52.07727s-.02564.02564-.00345.04362c.02219.01758.05318-.00574.05318-.00574s.42421-.33089.67516-.565c.267-.249.64722-.67706.64722-.67706a.04547.04547,0,0,0-.00383-.06083c-.02946-.02793-.10328.01492-.1618.04361a.55935.55935,0,0,0-.12319.0899c-.039.03288-.16294.16142-.16294.16142l-.32821.31863-.20426.19242-.20045.192-.08492.096-.02791.04628c-.00613.00956-.02832.039-.02832.039s-.02946.02945-.02946.03672c-.00037.00765-.00992.01682-.01032.0264a.07425.07425,0,0,1-.0065.02256Z" style="fill: #fff"/>
    <path d="M40.447,52.55771a.10788.10788,0,0,0-.11743-.00037.56356.56356,0,0,0-.15529.14842c-.00613.01147-.04591.065-.01914.11132.02678.04665.11859-.02219.132-.02372a1.34612,1.34612,0,0,0,.13236-.096.10516.10516,0,0,0,.02753-.13962Z" style="fill: #fff"/>
    <path d="M39.04485,53.97994s-.0591-.11324-.13866-.06657a.47273.47273,0,0,0-.19356.16182c-.01263.01721-.09066.11743-.10482.14383-.01414.026-.09066.1729.06638.18245.27082.01646.09391-.15875.18686-.22491.07536-.05394.21631-.04017.21823-.09487a.17667.17667,0,0,0-.03443-.10175Z" style="fill: #fff"/>
    <path d="M34.23923,48.30445s-.16277.03941-.17481.09716c-.012.05739.09487.11362.11265.1163.01759.00306.05507.04512.16258-.02754.10768-.07268.10346-.13543.10346-.13543s.0633-.07344-.20388-.05049Z" style="fill: #fff"/>
    <path d="M36.8834,48.21839s-.0019-.0593-.1178-.0524c-.1163.00689-.14155.02792-.1446.0459-.00306.01759.00554.047.11054.05547.10521.008.148-.0004.15186-.049Z" style="fill: #fff"/>
    <path d="M39.3805,48.29108a1.86345,1.86345,0,0,0-.272.01184,4.34416,4.34416,0,0,1-.59521-.013c-.32476-.021-.82778-.10366-.82778-.10366s-.0635-.013-.088.02753c-.02428.04017.06121.12738.13733.15149a1.67273,1.67273,0,0,0,.71417.10978c.15569.00229.24329-.013.39858-.02372a2.025,2.025,0,0,0,.5034-.03978c.05585-.01492.10979-.11972.02945-.12048Z" style="fill: #fff"/>
    <path d="M40.78934,47.873s-.04207-.049-.12891-.0065a.376.376,0,0,0-.13962.1377s-.04017.06313.04552.0528a.52655.52655,0,0,0,.18247-.06006c.02141-.01262.08416-.07116.04054-.12394Z" style="fill: #fff"/>
    <path d="M39.56318,30.97862a6.35338,6.35338,0,0,0,1.02075-1.29321c.25322-.439.36225-1.46125.14536-1.20591-.09832.11553-.18668.65592-.36608,1.05117a9.57428,9.57428,0,0,1-.84116,1.35s-.1599.25083.04113.09793Z" style="fill: #fff"/>
    <path d="M37.18752,32.3929a.114.114,0,0,0-.03443.12841c.02906.08015.16487-.028.16487-.028a2.04978,2.04978,0,0,1,.56154-.11544,3.376,3.376,0,0,1,.68949.0747s.19068.05259.22282.06455.13542.06311.15243.069c.017.006.10157.1029.15741.05259s-.34656-.4157-.75873-.47155a1.76917,1.76917,0,0,0-1.134.20139l-.02141.02431Z" style="fill: #fff"/>
    <path d="M34.36642,34.804c.04933.04054.27905-.3938.47012-.66942.14-.20206.39589-.54022.39589-.54022s.11438-.15462-.08071-.06817a1.16277,1.16277,0,0,0-.45022.50482c-.12987.25859-.384.73245-.33508.773Z" style="fill: #fff"/>
    <path d="M32.78545,32.91053a.42219.42219,0,0,0,.14842.37938c.198.21182.24978.38681.376.26078.03483-.03472-.12317-.32094-.20464-.39926s-.14076-.14411-.14076-.14411l-.05088-.04256-.06655-.03586-.03712-.0152a.02238.02238,0,0,0-.02448-.00317Z" style="fill: #fff"/>
    <path d="M32.14472,31.29352s-.21363.04017-.26661.14384c-.053.10376.24634.04015.24634.04015s.19854.01167.20351-.06454c.00478-.07622-.02564-.085-.18324-.11945Z" style="fill: #fff"/>
    <path d="M28.743,36.93055c-.10787-.0328-.12718.18324-.14058.25208-.01337.069.048.20868.07325.20782a.37065.37065,0,0,0,.11706-.204c.005-.06667.04744-.22617-.04973-.25592Z" style="fill: #fff"/>
    <path d="M32.27536,41.12854s-.1945-.15415-.22435-.093.16065.33318.16065.33318a.12145.12145,0,0,0,.14766.04781.11364.11364,0,0,0,.05662-.13962s-.06007-.127-.14058-.14842Z" style="fill: #fff"/>
    <path d="M30.80208,36.58724a.0589.0589,0,0,0-.06905.04764,2.26985,2.26985,0,0,0-.02965.27579,2.14637,2.14637,0,0,0,.02411.33939,1.17264,1.17264,0,0,0,.21306.62083s.04266.09371.09411.08874c.05162-.00487.03978-.06637.03978-.06637s-.16334-.64989-.16947-.71627c-.01912-.21487-.01759-.47891-.01759-.47891l-.00173-.04007a.077.077,0,0,0-.08357-.07077Z" style="fill: #fff"/>
    <path d="M31.057,34.60578s-.09026-.01808-.17346.15617-.06618.24538-.05891.25341.07381.00574.179-.15588c.10557-.16171.082-.22186.082-.22186s-.00594-.0326-.0287-.03184Z" style="fill: #fff"/>
    <path d="M33.53482,36.402s.1094.16152-.09946.124a4.7601,4.7601,0,0,1-.82473-.47556c-.17748-.09288-.46647-.12414-.345-.23144.02162-.01912.02717-.03692.06313-.03872a.67156.67156,0,0,1,.16275.05019c.00746.00421.31616.13054.32725.135a2.97455,2.97455,0,0,1,.30754.151c.12356.073.32323.21258.32323.21258l.08532.07288Z" style="fill: #fff"/>
    <path d="M39.31147,41.37449c.05679.18019-.65756-.37754-1.04027-.67208-1.01484-.78121-2.2565-2.382-2.10158-2.523.12854-.11724.58048.66769,1.32621,1.47423.79678.86172,1.78216,1.61491,1.81564,1.72086Z" style="fill: #fff"/>
    <path d="M42.29379,40.6087c-.25322.2142-.41771.682-.17174.76542.15531.05278.10327-.35192.24176-.51258.119-.1377.19164-.11667.38939-.25629.33547-.23639-.14534-.262-.45941.00345Z" style="fill: #fff"/>
    <path d="M41.02383,35.556c-.1511-.02438-.14688.20647-.12395.37171a3.56819,3.56819,0,0,0,.87024,1.83361c.26738.3242,1.00221.90276,1.08827.81a8.68535,8.68535,0,0,1-1.221-1.31407,2.98559,2.98559,0,0,1-.48962-1.38253c-.00537-.05317.00763-.29722-.12394-.31873Z" style="fill: #fff"/>
    <path d="M38.18091,24.66835a5.32373,5.32373,0,0,1-.90542.33776s-.02677.0567.04685.05077a2.45459,2.45459,0,0,0,.9416-.2164,1.22017,1.22017,0,0,0,.45367-.42834s.10519-.19413-.09258-.03375a3.77314,3.77314,0,0,1-.44412.29Z" style="fill: #fff"/>
    <path d="M42.17483,23.4062a.28944.28944,0,0,0-.18782.0222c-.07574.04753-.05318.08549-.05318.08549a.59231.59231,0,0,0,.20007.104c.08339.0133.26279.09086.25515.03012a.52505.52505,0,0,0-.14191-.20245.18753.18753,0,0,0-.07231-.03931Z" style="fill: #fff"/>
    <path d="M40.2955,26.85569c.01913.03978.35461-.05221.48352-.1244.10211-.05709.14076-.2475.14076-.2475s.0283-.18486-.0153-.11381c-.19164.31348-.62772.44584-.609.48571Z" style="fill: #fff"/>
    <path d="M40.284,25.99436c.13581-.25954-.37237.26977-.631.40747-.15741.08378-.41407.19385-.41407.19385s-.06847.08549.02638.07783.337.07576.53115-.07659a3.81335,3.81335,0,0,0,.25055-.3324,1.20736,1.20736,0,0,0,.237-.27016Z" style="fill: #fff"/>
    <path d="M40.20637,27.10184a2.09723,2.09723,0,0,0,.7222-.01357c.11209-.03271.17213-.23124.17213-.23124s.06926-.17384.01072-.11436c-.25706.2623-.91461.31614-.90505.35917Z" style="fill: #fff"/>
    <path d="M31.06678,32.31322s-.087-.03039-.19356.13054c-.10672.16105-.586.88679-.50034.99484.10023.12652.51489-.65008.64188-.79545a.31388.31388,0,0,0,.07593-.29424s-.00133-.0332-.02391-.03569Z" style="fill: #fff"/>
    <path d="M41.49891,45.43439a1.60118,1.60118,0,0,0,.09218.83237c.20391.24481.08034-.38213.10751-.60246a1.31858,1.31858,0,0,1,.15262-.49576c.18093-.394-.24481-.24826-.35231.26585Z" style="fill: #fff"/>
    <path d="M39.75193,24.40726a.70011.70011,0,0,0-.28173.072.3344.3344,0,0,0-.15625.16354.1901.1901,0,0,0-.00746.10758c.03616.08283.20617-.043.32629-.00115a.408.408,0,0,1,.21632.15052c.06426.07766.17863.18859.24979.12586.07152-.06273.04514-.21986.04514-.21986a.81567.81567,0,0,0-.194-.33011.35564.35564,0,0,0-.19815-.06839Z" style="fill: #fff"/>
    <path d="M37.1288,26.21583a.0914.0914,0,0,0-.06733.12088c.02086.10654.07842.0895.07842.0895s.18265-.07746.17117-.18809-.18226-.02229-.18226-.02229Z" style="fill: #fff"/>
    <path d="M35.84792,25.64187a.21446.21446,0,0,0-.163.1224,1.46328,1.46328,0,0,0-.10653.2408s-.03213.15731.02429.20618c.05623.04886.117-.10167.19775-.15923.04936-.0352.07958-.05126.1293-.08569.0681-.04733.18017.01262.17174-.12632a.23593.23593,0,0,0-.2536-.19814Z" style="fill: #fff"/>
    <path d="M39.986,24.15126s-.21765-.03118-.20962.05271c.00765.07763.11858.03125.19011.06273a.52228.52228,0,0,1,.17023.09428c.03978.03635.036.10788.0853.10864.07038.001.05546-.027.05546-.027a.59069.59069,0,0,0-.1442-.24146.26626.26626,0,0,0-.14728-.04993Z" style="fill: #fff"/>
    <path d="M42.41888,25.02973a1.20844,1.20844,0,0,1-.05088.15989s-.06121.24108.18208.15167a1.31386,1.31386,0,0,0,.29188-.13637c.174-.085.16868-.03864.29644-.03251a.42968.42968,0,0,0,.135-.00918c.05431-.01158.03214-.07736-.09105-.11007a2.1399,2.1399,0,0,0-.48274-.02813c-.1094-.00113-.249-.113-.28077.0047Z" style="fill: #fff"/>
    <path d="M42.5256,24.13845a.28909.28909,0,0,0-.18782.02229c-.07574.04742-.05316.08539-.05316.08539a.59569.59569,0,0,0,.20005.104c.08339.0133.26279.09086.25515.03014a.52538.52538,0,0,0-.14191-.20255.18478.18478,0,0,0-.07231-.03931Z" style="fill: #fff"/>
    <path d="M42.95518,25.81132a.34814.34814,0,0,0-.20159.02189c-.08186.04534-.05738.08128-.05738.08128a.659.659,0,0,0,.21382.09765c.08914.01215.28154.085.2739.02744-.008-.05756-.11514-.16265-.15186-.19125a.20528.20528,0,0,0-.07689-.037Z" style="fill: #fff"/>
    <path d="M42.99038,26.41857a.339.339,0,0,0-.21231.02448c-.08568.05165-.06.093-.06.093a.67663.67663,0,0,0,.22529.11275c.0945.01424.29722.0983.28882.03231a.56969.56969,0,0,0-.16028-.21984.2115.2115,0,0,0-.08147-.04266Z" style="fill: #fff"/>
    <path d="M43.04774,27.01044a.3544.3544,0,0,0-.23026.02734c-.093.058-.06505.10472-.06505.10472a.72341.72341,0,0,0,.24482.12746c.10213.01627.32247.11142.31328.03692a.64609.64609,0,0,0-.17442-.24817.225.225,0,0,0-.08837-.04827Z" style="fill: #fff"/>
    <path d="M43.03436,27.74247a.3542.3542,0,0,0-.23028.02726c-.093.05825-.065.10482-.065.10482a.72311.72311,0,0,0,.24481.12746c.10214.01626.32247.11142.31328.03692a.65209.65209,0,0,0-.17442-.24826.227.227,0,0,0-.08837-.0482Z" style="fill: #fff"/>
    <path d="M42.93375,29.16842a.35388.35388,0,0,0-.23028.02736c-.093.05813-.065.1047-.065.1047a.72306.72306,0,0,0,.24481.12748c.10214.01626.32247.1114.31329.03692a.6475.6475,0,0,0-.17443-.24816.22531.22531,0,0,0-.08837-.0483Z" style="fill: #fff"/>
    <path d="M43.0271,28.45415a.40969.40969,0,0,0-.26624.03157c-.10749.06722-.07537.12106-.07537.12106a.84092.84092,0,0,0,.28307.14738c.11858.01874.373.12871.36226.04263a.74543.74543,0,0,0-.20159-.28688.26086.26086,0,0,0-.10213-.05576Z" style="fill: #fff"/>
    <path d="M42.86644,29.8121a.29227.29227,0,0,0-.18974.02239c-.0765.04791-.05355.08625-.05355.08625a.598.598,0,0,0,.20159.105c.08416.0134.26546.09172.25782.03042a.53241.53241,0,0,0-.14344-.20435.18543.18543,0,0,0-.07268-.03971Z" style="fill: #fff"/>
    <path d="M42.76009,30.43084a.242.242,0,0,0-.15721.01864c-.06351.03978-.04477.07155-.04477.07155a.49689.49689,0,0,0,.16755.08711c.06963.01109.22033.07613.21383.02525a.44191.44191,0,0,0-.119-.16955.156.156,0,0,0-.06044-.033Z" style="fill: #fff"/>
    <path d="M42.62774,30.99411a.21853.21853,0,0,0-.14192.01692c-.05738.03576-.04017.06445-.04017.06445a.44994.44994,0,0,0,.15073.07852c.0631.00995.19891.06857.19317.02276a.39927.39927,0,0,0-.10749-.15282.13936.13936,0,0,0-.05432-.02983Z" style="fill: #fff"/>
    <path d="M42.49348,31.45571a.2181.2181,0,0,0-.14191.01684c-.05739.03576-.04017.06446-.04017.06446a.44946.44946,0,0,0,.1507.07849c.06313.00995.19891.06857.19317.02268a.39943.39943,0,0,0-.10748-.15272.13844.13844,0,0,0-.05431-.02975Z" style="fill: #fff"/>
    <path d="M42.33319,31.99181a.17646.17646,0,0,0-.11474.01359c-.04591.02887-.03214.052-.03214.052a.36026.36026,0,0,0,.12164.0635c.05088.00813.16066.05536.15607.01837a.323.323,0,0,0-.08684-.12347.1115.1115,0,0,0-.044-.024Z" style="fill: #fff"/>
    <path d="M42.1404,32.49358a.15187.15187,0,0,0-.09869.01177c-.03978.02486-.02793.04485-.02793.04485a.31289.31289,0,0,0,.10482.05461c.044.007.13847.04772.13428.01588a.27506.27506,0,0,0-.0746-.10644.09718.09718,0,0,0-.03788-.02067Z" style="fill: #fff"/>
    <path d="M41.94149,32.9704a.15144.15144,0,0,0-.09869.01167c-.03977.02486-.02792.04485-.02792.04485a.31045.31045,0,0,0,.10519.05461c.044.00707.13809.04781.13427.01586a.2788.2788,0,0,0-.075-.10633.09443.09443,0,0,0-.03788-.02066Z" style="fill: #fff"/>
    <path d="M29.04935,35.39492s-.09982.19317-.05049.29875c.049.10567.18324-.16937.18324-.16937s.13866-.27331.08148-.32407c-.057-.05069-.0899.09169-.21423.19469Z" style="fill: #fff"/>
  </g>
</svg>
