<svg id="ba654221-7af9-4a02-9608-2748975e4617" data-name="Layer 1" xmlns="http://www.w3.org/2000/svg" viewBox="0 0 80 80">
  <path d="M43.31851,15a24.99407,24.99407,0,0,0-24.999,25.00128c0,.49359.01681.97061.03572,1.44785H15.0916a.384.384,0,0,0-.34882.2398c-.05464.12818-2.95291,5.22659-3.02646,5.35478-.05463.12818-.05463.20173.09246.20173h7.57431A25.003,25.003,0,1,0,43.31851,15ZM25.45468,47.24544h6.6581l-3.21161,5.55675A19.93876,19.93876,0,0,1,25.45468,47.24544Zm17.86383,12.0318a19.20863,19.20863,0,0,1-13.46308-5.4853h5.41176S50.819,26.39088,50.87367,26.28184c.07588-.1116.03782-.18515-.07122-.18515h-6.3471c-.12818,0-.14709.03806-.18282.09269-.03782.0544-8.76789,15.25975-8.76789,15.25975H24.097c-.03782-.47724-.0544-.95426-.0544-1.44785A19.26088,19.26088,0,0,1,57.16613,26.61176c-1.5214,2.56812-8.34574,14.1584-9.262,15.846-.53164-1.22931-2.99049-.98975-4.25576-1.00867-.55079.91621-3.13549,5.79631-3.13549,5.79631s1.42894-.01891,2.71312,0c1.24845.01891,1.39555,1.3199.89939,2.14574-.49593.82608-2.53263,4.40076-2.53263,4.40076h6.54883s8.03474-14.03045,12.60151-22.00822a19.01174,19.01174,0,0,1,1.85131,8.21756A19.28537,19.28537,0,0,1,43.31851,59.27724Z" style="fill: #fff;fill-rule: evenodd"/>
</svg>
