<svg id="bd3c0dd4-0b7f-4e32-86a0-c673f4783c26" data-name="Layer 1" xmlns="http://www.w3.org/2000/svg" viewBox="0 0 80 80">
  <g>
    <circle cx="39.96247" cy="40" r="11.39132" style="fill: #ffd800"/>
    <g>
      <path d="M69.84035,47.62868l-.00193-.00429c-.01319-.02836-.03227-.06937-.04106-.091-.012-.06026-.02091-.13108-.03024-.20559l-.00139-.0111a1.984,1.984,0,0,0-.12319-.54509.96467.96467,0,0,0-.69346-.54756.68922.68922,0,0,0-.108-.26226,2.44919,2.44919,0,0,0-.68662-.60417c-.05864-.039-.12512-.08331-.14957-.10427l-.05811-.04471a.772.772,0,0,0-.48644-.16962,1.099,1.099,0,0,0-.80394.42781c-.03307-.08605-.08767-.28771-.11867-.40207-.04257-.1566-.08266-.3045-.12459-.42008l-.00611-.01609-.01833-.04894a1.08889,1.08889,0,0,0-.81164-.79357A3.5708,3.5708,0,0,0,65.1484,43.75a.92567.92567,0,0,1-.40538-.07409c.007-.0238.02037-.06143.04471-.12078a2.45578,2.45578,0,0,0,.11225-.334,3.263,3.263,0,0,0,.10089-1.41892,2.959,2.959,0,0,0,.415.03206,3.44563,3.44563,0,0,0,1.33443-.27335l.02273-.01046a2.68981,2.68981,0,0,0,1.56313-2.416l-.00215-.032a4.37619,4.37619,0,0,0-1.65061-2.80069,2.50116,2.50116,0,0,0,.80284-.33725,2.30084,2.30084,0,0,0,.87093-2.42547l-.01587-.07039a.6307.6307,0,0,0-1.06177-.40668c-.02445.02246-.04943.04605-.07623.07157a1.171,1.171,0,0,1-.18806.1574,2.20662,2.20662,0,0,1-.62894.1917,4.83239,4.83239,0,0,0-.59066.15107,2.49858,2.49858,0,0,0-1.70991,1.46111,1.67232,1.67232,0,0,0,.16308,1.3185l.01876.032a6.40031,6.40031,0,0,0,1.0176,1.14824,3.02986,3.02986,0,0,1,1.04966,1.44942c.01619.09714.04622.27619-.27844.52135a1.05407,1.05407,0,0,1-.50424.11124,1.92746,1.92746,0,0,1-.86932-.2183l-.01383-.00713a11.49541,11.49541,0,0,1-1.19741-.73288,8.45619,8.45619,0,0,0-2.04786-1.10885,5.12206,5.12206,0,0,0-1.05212-.2957,2.60737,2.60737,0,0,1-1.09062-.38336l-.03913-.028c-.12127-.07912-.24607-.16935-.367-.25684a3.9686,3.9686,0,0,0-1.28146-.69777,2.96713,2.96713,0,0,0-.52472-.11081.88764.88764,0,0,1-.38063-.10153c-.0817-.05838-.16361-.11827-.24574-.17831l-.01254-.00922a7.72368,7.72368,0,0,0-1.07347-.698,8.26248,8.26248,0,0,0-1.9951-.62851c-.0371-.00879-.13434-.12706-.19921-.20608a2.14471,2.14471,0,0,0-.42147-.41852,3.08858,3.08858,0,0,0-1.95394-.80611c-.0729,0-.14678.00305-.21089.00847a2.10961,2.10961,0,0,0-1.17864.58648c-.59806.52365-1.2493.995-1.8791,1.45076a18.17631,18.17631,0,0,0-2.86292,2.39545,7.04681,7.04681,0,0,0-1.55283,3.18988c-.04268.15075-.08524.30139-.13156.45943-.08041.28895-.15364.58359-.22494.87-.362,1.454-.70389,2.82728-2.06233,3.70952a.67638.67638,0,0,0-.30879.64159.69628.69628,0,0,0,.4442.57077,1.57873,1.57873,0,0,0,.52108.08347.66756.66756,0,0,0,.1619.40314.78917.78917,0,0,0,.58948.25866l.0238.00048a3.11872,3.11872,0,0,0,2.17674-1.09512,1.76334,1.76334,0,0,0,.80348.439l.09285.01775.1024-.0119a5.07613,5.07613,0,0,1,.9374-.07077c.2748.08578.556.19171.8364.29732.2139.08046.43509.16366.66057.24033l.11151.03425.09789-.00364a1.42672,1.42672,0,0,0,1.08525-.7664l.025-.03918.018-.04278a1.05259,1.05259,0,0,0,.04921-.1448l.0015.00493.037.12909a2.06291,2.06291,0,0,0,.34867.79641.87022.87022,0,0,0,.681.3082h.001a1.6325,1.6325,0,0,0,.25786-.02455l.03088-.00456.02873.03083a1.19245,1.19245,0,0,0,.53255.36915c.24886.08287.5.14855.74688.21314a8.25115,8.25115,0,0,1,.88776.26837l.03152.01115a2.20138,2.20138,0,0,0,.71718.13531,1.26641,1.26641,0,0,0,.84852-.32155,1.544,1.544,0,0,0,.5481-.85924,1.07674,1.07674,0,0,0,.184-.046c.41654-.13831.82343-.90363.82729-.91109a1.67758,1.67758,0,0,1,.091-.15112.85337.85337,0,0,0,.15171-.48709.731.731,0,0,0-.7206-.7265l-.0653-.00215c-.03313-.00016-.81614-.004-1.04151.00038l-.01951.00069a1.03455,1.03455,0,0,0-.26944.05117l-.014-.01927c-.0601-.07378-.12428-.24159-.20985-.284.00624-.00527.02375-.01019.02993-.01553l.2191.02348c.13982.01394.28306.021.42587.021a7.64981,7.64981,0,0,0,1.38911-.16061,6.50521,6.50521,0,0,1,1.16391-.03161c.03945,0,.07934.00069.12051.0023l.02144.00038c.1678,0,.33549.015.51765.03125.18227.01651.38888.03517.60106.03517.07656,0,.14871-.00231.22033-.007a2.201,2.201,0,0,0,.57319-.1017c.01673.09762.03892.21728.06787.36572l.02841.12292a2.3275,2.3275,0,0,0,1.04065,1.61143l.11794.077a2.35658,2.35658,0,0,0,1.13083.466,1.79716,1.79716,0,0,0,.56664-.024,2.62628,2.62628,0,0,1,2.06866.47808l.05361.03452a1.50109,1.50109,0,0,1,.18623.14368,1.85283,1.85283,0,0,0,.554.35569,1.36417,1.36417,0,0,0,.49695.09446h.0119a1.2037,1.2037,0,0,0,.65542-.17825l.00247-.00134c.022.02959.04556.06261.066.09135a2.80421,2.80421,0,0,0,.39006.46307,1.42772,1.42772,0,0,0,1.02854.35468c.13263,0,.26011-.00912.37172-.017.04042-.0029.08438-.00483.12609-.00686.07827-.00365.15085-.00772.19932-.01341a1.38655,1.38655,0,0,0,.16582-.02852.63834.63834,0,0,0,.3678.12105.62236.62236,0,0,0,.1753-.0253l.652-.21411a.66.66,0,0,0,.40946-.36229A.969.969,0,0,0,69.84035,47.62868ZM49.29,44.39494,49.24,44.32c-.02026-.03029-.041-.06095-.06626-.09982a2.03777,2.03777,0,0,1-.22205-.38137c.19525.01956.40336.03951.61811.0483Z" style="fill: #ffd800"/>
      <path d="M39.6,45.25268l-.3423-.17085a2.368,2.368,0,0,1-.70179-.86138c-.09859-.16533-.20055-.33629-.31222-.4931a2.326,2.326,0,0,0-.37654-.39772c-.02145-.01919-.04922-.04407-.07211-.06524a12.942,12.942,0,0,1-.85238-3.46715,3.46249,3.46249,0,0,0-.41434-1.2182l-.00692-.01164a26.445,26.445,0,0,0-2.01971-2.61471c-.05119-.05415-.10705-.10894-.15573-.15659l-.03565-.0348L31.89419,33.751l-.0364-.02777a3.75682,3.75682,0,0,0-1.08939-.58252,3.10523,3.10523,0,0,0-2.10848.07355l-.0408.01952c-.2094.11081-.404.23513-.594.3565a4.00913,4.00913,0,0,1-.83748.45063l-.05146.02005a6.89508,6.89508,0,0,1-.76843.27057,4.33516,4.33516,0,0,0-1.75365.868c-.13107.1203-.2384.22146-.32878.3068a4.05578,4.05578,0,0,1-.30246.27153c-.01442.00145-.04407.00316-.104.00316a3.28924,3.28924,0,0,0-2.24862.78232l-.02225.01919a3.95848,3.95848,0,0,1-1.23584.86524,2.92514,2.92514,0,0,1-.63687.11012l-.02418.00209a4.53616,4.53616,0,0,0-.88513.13815,5.354,5.354,0,0,0-1.88794,1.0926c-.23712.18441-.39033.2994-.45557.34186-.04707.03072-.10486.06669-.15128.09381a3.41207,3.41207,0,0,1-1.70744.64117l-.03045-.00038a.90432.90432,0,0,1-.75541-.56128,1.11331,1.11331,0,0,1,.33383-1.09212c.204-.204.44506-.409.67836-.6075a6.93227,6.93227,0,0,0,1.09887-1.079,1.75413,1.75413,0,0,0-.10432-2.14151,3.30211,3.30211,0,0,0-1.63458-.781l-.04659-.01147c-.02643-.00665-.06342-.01356-.1-.01946l-.03233-.00606c-.06219-.01211-.12346-.02305-.1842-.03388-.10631-.01892-.20688-.03683-.30294-.06015a2.18636,2.18636,0,0,1-.588-.32931,4.92764,4.92764,0,0,0-.467-.2971L12.04,32.60562l-.2785.427a1.72957,1.72957,0,0,0-.27,1.10756l.003.03055a2.59592,2.59592,0,0,0,1.434,1.88987l.01667.00729q.03917.01634.07891.03115a1.61835,1.61835,0,0,0,.49251.11451,8.375,8.375,0,0,0-1.13973,1.1119,2.82669,2.82669,0,0,0-.407,2.76492,2.93915,2.93915,0,0,0,2.35209,1.77033,3.04285,3.04285,0,0,0,.472.03581,4.07516,4.07516,0,0,0,.79609-.08658l.00048.01029a7.08853,7.08853,0,0,0,.06021.80746,5.26193,5.26193,0,0,0,.31387.9471l.01008.0245a2.76138,2.76138,0,0,1-.60213.27276c-.15648.01871-.32632.02767-.45133.03426-.08706.0045-.15579.0089-.19149.01308a.83615.83615,0,0,0-.48956.23105,2.2561,2.2561,0,0,0-.417.795c-.05688.14565-.11558.296-.17187.41879a.866.866,0,0,1-.18808.19581,1.35127,1.35127,0,0,0-.35487-.38119l-.00075-.00059-.016-.01265a.78376.78376,0,0,0-.91253-.01721c-.04122.028-.0825.05533-.12372.08267l-.03319.022a6.14368,6.14368,0,0,0-.58289.42276.89963.89963,0,0,0-.28448.48258.64383.64383,0,0,0-.14626.03833,1.23071,1.23071,0,0,0-.73123.9076,4.48954,4.48954,0,0,1-.04942.47c-.0052.00654-.01523.0186-.03405.03962a.7266.7266,0,0,0-.00407.98206,2.69912,2.69912,0,0,0,1.0859.39338h.03619l.092-.012.04165-.01233a.65871.65871,0,0,0,.128-.05228l.17248.01582a2.87079,2.87079,0,0,1,.32181.058,3.06416,3.06416,0,0,0,.65714.0906,1.45534,1.45534,0,0,0,.69777-.16833,1.65848,1.65848,0,0,0,.70013-.73745c.03935-.0676.07961-.13675.11863-.19138l.06155.01619a1.83316,1.83316,0,0,0,.37145.06883,2.1813,2.1813,0,0,0,1.39823-.51727c.10325-.08159.201-.1731.28991-.25625a2.84065,2.84065,0,0,1,.29045-.25,1.01984,1.01984,0,0,1,.37226-.05613,4.62986,4.62986,0,0,1,.80859.10148,2.1155,2.1155,0,0,0,1.53-.17251c.23121-.131.4635-.25266.65076-.35077l.03163-.01662c.10233-.05377.19267-.10132.265-.14109a2.73287,2.73287,0,0,0,.96415-1.15468c.09746-.19391.24462-.55587.28509-.65655q.05951.00321.12287.00322H21.684a5.5334,5.5334,0,0,0,.84562-.08846c.1812-.02862.35237-.05564.483-.0617l.02294-.0015c.051-.00451.1039-.00681.15729-.00681.26236,0,.64432.03123.93017.06287.23974.02655.40186.04959.71794.0646.04272.002.08872.00574.13707.0097.10036.0081.21412.01727.33742.01727a1.78162,1.78162,0,0,0,.79866-.182c.061.05944.16153.20075.22909.25824l-.03.00048a.71915.71915,0,0,0-.5253.22224,1.61773,1.61773,0,0,0-.743-.06392,6.96473,6.96473,0,0,0-.92694.14172.668.668,0,0,0-.51116.38433.77536.77536,0,0,0,.03844.704c.16522.29474.32412.56139.49234.84364l.07414.12443a.7345.7345,0,0,0,.6707.34722c.04986,0,.10465-.00327.16571-.00756l.01705-.00123.03141.05656a2.17156,2.17156,0,0,0,.54065.70157,1.59484,1.59484,0,0,0,1.02912.36379,1.6479,1.6479,0,0,0,.49422-.07462,13.35086,13.35086,0,0,0,2.13626-.82005l.091-.00011.05655-.00295c.04461-.00461.09017-.008.13628-.01136a1.45207,1.45207,0,0,0,1.02248-.3914l.03-.03163.02471-.03592c.12668-.18409.24333-.36834.35173-.55565.00493.02149.01088.044.01806.06722l.00488.01491a1.11091,1.11091,0,0,0,1.075.69589h.00059l.02428-.00054a4.1331,4.1331,0,0,0,1.24544-.30042l.02487-.009c.051-.01844.10213-.03688.15456-.05527l.036-.014a2.16263,2.16263,0,0,1,1.15827-.05993l.06208.01013.06278-.004a2.149,2.149,0,0,0,1.22651-.54225,3.07778,3.07778,0,0,0,2.32008.97648c.03377,0,.068-.00043.10373-.00134l.15054-.01083.04181-.00981a.67521.67521,0,0,0,.52649-.77325,1.56167,1.56167,0,0,0,.16539-.02734.6896.6896,0,0,0,.54246-.56493A.64879.64879,0,0,0,39.6,45.25268Zm-7.98289-1.53444c-.02643.02455-.05387.04964-.08154.07489a3.05591,3.05591,0,0,0-.496.54016c-.10856-.1827-.18093-.31634-.23941-.43911a2.74269,2.74269,0,0,0,.69632-.19937q.065-.0016.1285-.00579Z" style="fill: #ffd800"/>
    </g>
    <g>
      <path d="M11.25071,46.70362a.08178.08178,0,0,0-.03122.00584.71548.71548,0,0,0-.38933.43608c-.04426.59427-.061.657-.22369.83868-.04542.05057-.07642.16772-.02472.21969a3.65737,3.65737,0,0,0,.69387.231l.01308-.00169c.05276-.01549.09545-.14929.21374-.55909.06367-.22066.13586-.47075.21658-.69736.00527-.01445.00638-.03637-.04694-.1119C11.60413,46.96836,11.37794,46.70362,11.25071,46.70362Zm.64669-.01045a.33592.33592,0,0,0,.21763.08633.40729.40729,0,0,0,.183-.04849,2.30388,2.30388,0,0,0,.68531-.81525c.036-.099-.07764-.1894-.22149-.30411l-.01677-.01324a.23061.23061,0,0,0-.25479.00877c-.05352.0363-.10705.07163-.16057.10718a5.62957,5.62957,0,0,0-.5349.38686.38527.38527,0,0,0-.11157.248.20651.20651,0,0,0,.03361.15057C11.73233,46.517,11.86831,46.669,11.8974,46.69317ZM39.352,45.74862c-.16577-.08286-.36-.17974-.36-.17974a2.751,2.751,0,0,1-.91089-1.06208c-.09341-.15667-.19-.31871-.29507-.4664a1.88553,1.88553,0,0,0-.28871-.29766.89705.89705,0,0,1-.19031-.19837,13.66729,13.66729,0,0,1-.91731-3.70574,2.9506,2.9506,0,0,0-.34086-.9812,26.07786,26.07786,0,0,0-1.95018-2.5239c-.04613-.04883-.09655-.09814-.14-.14065l-.03564-.03475-2.38325-1.98072a3.23591,3.23591,0,0,0-.96061-.5156,2.22624,2.22624,0,0,0-.74949-.12153,2.46517,2.46517,0,0,0-.95122.18351c-.18961.10036-.37471.21862-.55383.333a4.47252,4.47252,0,0,1-.96151.51,7.32654,7.32654,0,0,1-.83157.29445A3.84341,3.84341,0,0,0,24.989,35.608c-.12882.11825-.23428.2177-.32282.30123-.40894.38588-.45161.4262-.78729.4262a2.74028,2.74028,0,0,0-1.89794.65739,4.38293,4.38293,0,0,1-1.42692.97873,3.38851,3.38851,0,0,1-.77044.13871,4.14673,4.14673,0,0,0-.833.12816,4.93945,4.93945,0,0,0-1.67212.99c-.166.1291-.38859.3006-.49333.36879-.05416.03526-.12058.07659-.17392.1078a3.87373,3.87373,0,0,1-1.98746.717l-.05606-.00066a1.45755,1.45755,0,0,1-1.26046-.95361,1.6664,1.6664,0,0,1,.47243-1.646c.21984-.21981.46963-.43227.71117-.63779a6.54876,6.54876,0,0,0,1.01356-.98793,1.20985,1.20985,0,0,0-.06968-1.43683,3.00443,3.00443,0,0,0-1.35764-.61608l-.0486-.01206c-.02756-.0069-.07733-.01245-.10335-.019-.17782-.03462-.34736-.05891-.52108-.10169a5.95153,5.95153,0,0,1-1.1781-.67479,1.19089,1.19089,0,0,0-.18136.7653,2.03175,2.03175,0,0,0,1.11414,1.45537q.03453.01437.0697.02728a1.31235,1.31235,0,0,0,.52635.08438c.03693,0,.07381-.00049.11065-.00089.03674-.00053.07344-.00089.11009-.00089a1.39961,1.39961,0,0,1,.34693.029.32406.32406,0,0,1,.231.26626c.00873.07858-.02665.13918-.1266.217q-.13793.11583-.27768.23063a9.34819,9.34819,0,0,0-1.35234,1.27887,2.27677,2.27677,0,0,0-.30728,2.20927,2.37332,2.37332,0,0,0,1.91108,1.41466,2.48957,2.48957,0,0,0,.39327.03032,5.001,5.001,0,0,0,1.22549-.20169.15448.15448,0,0,1,.03719-.00545c.0181,0,.05189,0,.058.09026.01194.17519.02093.37407.02961.56642.01422.31291.02763.60844.05123.733a4.83264,4.83264,0,0,0,.2823.84025c.03879.09486.06939.1696.07989.207a.345.345,0,0,1-.08231.343,2.80889,2.80889,0,0,1-1.01542.50515c-.17957.02252-.37048.0327-.50983.04-.07089.00373-.12685.00674-.15654.01018a.27819.27819,0,0,0-.16732.0782,2.23681,2.23681,0,0,0-.28662.59868c-.065.1666-.13234.33873-.2.48207a2.1067,2.1067,0,0,1-.81759.67928c-.07731.04471-.154.089-.22792.135l-.009.0089a2.44,2.44,0,0,1-.41734.53674.74847.74847,0,0,1-.446.16377l-.011.00129-.0072.00832a2.13821,2.13821,0,0,0-.39318.99774c-.01147.05429-.023.10844-.0352.1628l-.01009.05051.03155.00294a3.31,3.31,0,0,1,.38846.0683,2.5908,2.5908,0,0,0,.53975.0781.89372.89372,0,0,0,.44622-.10834,1.13708,1.13708,0,0,0,.47221-.52144,1.71343,1.71343,0,0,1,.27042-.38077.31021.31021,0,0,1,.24459-.10454,1.15735,1.15735,0,0,1,.2836.05172,1.36816,1.36816,0,0,0,.26291.052,1.64309,1.64309,0,0,0,1.024-.39863c.086-.06795.17172-.14827.25472-.22591a2.80081,2.80081,0,0,1,.40283-.33351,1.46407,1.46407,0,0,1,.63893-.12241,5.1758,5.1758,0,0,1,.92889.11436,1.74025,1.74025,0,0,0,.441.05733,1.412,1.412,0,0,0,.69541-.17071c.237-.13425.47481-.25891.666-.35914.11175-.05876.21016-.11028.288-.15306A2.34635,2.34635,0,0,0,20.78,45.0022c.10012-.19909.27261-.63053.27432-.63482l.008-.02-.39622-.30261-.01642.02715a6.5727,6.5727,0,0,1-.43065.63056A3.187,3.187,0,0,1,17.47024,45.776q-.09477-.00345-.18872-.00354a3.4566,3.4566,0,0,0-2.70834,1.12862.0738.0738,0,0,1-.10842.01111.09638.09638,0,0,1-.00948-.08137.56332.56332,0,0,1,.07457-.188,3.38427,3.38427,0,0,1,2.89082-1.17157,4.23711,4.23711,0,0,0,1.69885-.405,2.66638,2.66638,0,0,0,1.18653-1.47558,6.55152,6.55152,0,0,0,.21871-1.05992,7.7363,7.7363,0,0,1,.15608-.83625.08639.08639,0,0,1,.0801-.05712.08117.08117,0,0,1,.02868.00581c.037.00616.107.03342.10742.08758a3.64918,3.64918,0,0,0,.0204,1.94114.75141.75141,0,0,0,.76653.37157,5.055,5.055,0,0,0,.75918-.08169,5.26194,5.26194,0,0,1,.54379-.06791c.06693-.00587.13613-.00889.20591-.00889a4.6452,4.6452,0,0,1,.91935.12125,5.33336,5.33336,0,0,0,.79982.11883c.04865.00231.101.00642.15544.01086.09491.00769.19306.01553.29277.01553a.78267.78267,0,0,0,.51554-.14336c.0839-.06834.05446-.17058.01731-.29984l-.00669-.02324c-.00629-.022-.01383-.04619-.02191-.07223-.05321-.17119-.13365-.42991.001-.54883a.12512.12512,0,0,1,.07363-.02473.05907.05907,0,0,1,.06221.041c.01511.04936.02929.09918.04347.14906a1.84835,1.84835,0,0,0,.25261.60348,3.81606,3.81606,0,0,0,1.24192.97035,1.64658,1.64658,0,0,1,.79137,1.19216c0,.252-.24439.42788-.42618.53719a2.55739,2.55739,0,0,1-1.009.30282.66215.66215,0,0,1-.34541-.135c-.27905-.25617-.24726-.34438-.42913-.64909a3.41809,3.41809,0,0,0-.32234-.47681.76767.76767,0,0,0-.68738-.24214,6.51853,6.51853,0,0,0-.85941.143.19109.19109,0,0,0-.13958.10749.22713.22713,0,0,0,.0166.20516c.16151.28807.31862.55175.485.83094l.07415.12439a.211.211,0,0,0,.19437.07663c.03794,0,.07955-.00291.123-.00593.04626-.00325.09408-.00664.1414-.00664a.34747.34747,0,0,1,.29534.1079c.04953.07583.095.15792.139.23738a1.65106,1.65106,0,0,0,.40856.54284,1.03073,1.03073,0,0,0,.67667.23759,1.0934,1.0934,0,0,0,.32823-.04924,12.30615,12.30615,0,0,0,2.16557-.84527l.227-.00026c.05017-.00524.1013-.00905.1526-.01286a.94019.94019,0,0,0,.6613-.22021,7.65644,7.65644,0,0,0,.57809-.98738.84823.84823,0,0,0,.00349-.84214,5.95985,5.95985,0,0,1-.69895-1.37116l-.005-.01331-.01369-.00394c-.05228-.01547-.104-.03578-.1541-.05558a.9418.9418,0,0,0-.35027-.08666l-.0168.00025a.3153.3153,0,0,0-.29581.13641l-.00651.01279.79942,1.57789a.71518.71518,0,0,1,.07946.43222,2.778,2.778,0,0,1-.54127.87961.138.138,0,0,1-.06925.02908c-.00969,0-.05091-.008-.02377-.10091a4.16118,4.16118,0,0,0,.143-1.05122,9.832,9.832,0,0,0-.72677-1.37969l-.01208-.01975a.98079.98079,0,0,1-.2011-.54822.2185.2185,0,0,1,.15093-.18376,2.38775,2.38775,0,0,1,.34656-.08687c.28436-.06246.5785-.12729.68324-.2864A4.27972,4.27972,0,0,0,30.5071,41.158c.00559-.03109.02759-.08975.07216-.08975.02617.00027.05194.00895.06256.06964a2.5568,2.5568,0,0,1-.43709,1.91752.21342.21342,0,0,0-.02826.15251.19374.19374,0,0,0,.073.102,1.539,1.539,0,0,0,1.12051-.1692,4.25722,4.25722,0,0,0,.88619-.10171c.08992-.01686.17886-.0336.26735-.04815a.119.119,0,0,1,.0557.06148,1.94793,1.94793,0,0,0-.4587.95c-.06587.0676-.13954.13476-.21079.19988a1.3434,1.3434,0,0,0-.55494.84684.12445.12445,0,0,0,.12405.1321.32319.32319,0,0,0,.13371-.03741.31729.31729,0,0,1,.138-.03462.08976.08976,0,0,1,.07623.08412l-.29688.43551a.69988.69988,0,0,0-.0189.56269c.03328.10383.01822.18461.04635.27528a.57422.57422,0,0,0,.55052.32049,3.64364,3.64364,0,0,0,1.08192-.26811c.06079-.02192.12139-.04392.18386-.06584a2.66934,2.66934,0,0,1,1.46744-.098,2.05148,2.05148,0,0,0,1.18414-.653.6884.6884,0,0,1,.46082.2621,2.51216,2.51216,0,0,0,1.937.82394c.029,0,.05848-.00037.08924-.00115l.07987-.00612c.08184-.01923.10346-.05927.108-.11035.00566-.06195-.04205-.12192-.13006-.16408l-.44043-.234a1.82718,1.82718,0,0,1-.842-.84821,4.67476,4.67476,0,0,0-.4853-1.02145c-.03105-.05046-.06549-.09991-.10207-.15233a1.94877,1.94877,0,0,1-.17162-.27842l.00194-.00179A2.04549,2.04549,0,0,1,37.603,45.08888a1.873,1.873,0,0,0,1.46142.91435,1.058,1.058,0,0,0,.227-.02431.13424.13424,0,0,0,.11407-.10859A.102.102,0,0,0,39.352,45.74862Zm-8.57056-7.09913c-.01314.04674-.042.077-.07354.077-.014,0-.04771-.00646-.05949-.06636a4.8242,4.8242,0,0,0-.34516-1.24378,1.63692,1.63692,0,0,0-.155-.24284c-.107-.14631-.19926-.27262-.09536-.4433a.22458.22458,0,0,1,.18979-.084.26263.26263,0,0,1,.11192.02373.94538.94538,0,0,1,.36507.455A2.52781,2.52781,0,0,1,30.78145,38.64949Zm4.00514,6.34659a.4862.4862,0,0,1-.10367.25737,1.09371,1.09371,0,0,1-.54743.11289c-.15924-.00616-.21435-.02834-.24782-.07756-.03737-.05491.02323-.16209.02323-.16209a1.017,1.017,0,0,1,.5824-.5294.32948.32948,0,0,1,.23664.01257C34.845,44.66674,34.79121,44.95545,34.78659,44.99608Zm1.08994-2.505a.71629.71629,0,0,1-.07783.25338.17393.17393,0,0,1-.16264.11315c-.11976.00044-.11078-.14082-.11207-.16013a2.1,2.1,0,0,0-.0892-.55631c-.0816-.17957-.47543-.68534-.70246-.66417a.641.641,0,0,0-.31607.23753c-.13355.17354-.13307.19456-.1743.22094-.0411.02634-.09455.01235-.11252-.08977a.75667.75667,0,0,1,.01136-.38129,1.85389,1.85389,0,0,1,.1528-.37833s.11855-.2737.16317-.34153a.33813.33813,0,0,1,.28579-.17322.3847.3847,0,0,1,.33532.17393,1.22533,1.22533,0,0,1,.18668.27662,1.92788,1.92788,0,0,0,.2457.31535,1.77213,1.77213,0,0,1,.34826.6546A1.27851,1.27851,0,0,1,35.87653,42.49109Zm-9.42934,3.196a2.393,2.393,0,0,1,.1774.3448c.09.199.16756.37083.25934.39959a.42924.42924,0,0,0,.128.01758,1.28159,1.28159,0,0,0,.70269-.27418c.11717-.099.07946-.16331.02735-.25239a1.12014,1.12014,0,0,1-.05422-.10089,1.68484,1.68484,0,0,1-.11675-.32035c-.05738-.20016-.10595-.37157-.321-.34081a6.44223,6.44223,0,0,1-.9368.06459c-.00441,0-.10823.0008-.14.07274-.03693.084.04684.16124.1355.24292A.94.94,0,0,1,26.44719,45.687Z" style="fill: #e2061f"/>
      <path d="M69.33812,47.86349a1.19865,1.19865,0,0,1-.07845-.193c-.01983-.09059-.03179-.18679-.04347-.27977A1.58053,1.58053,0,0,0,69.133,46.99a.40848.40848,0,0,0-.35877-.23093.32978.32978,0,0,0-.14868.035c-.22446.112-.35648.23114-.32006.48328a9.17259,9.17259,0,0,1,.26454.99227c.00957.05555.04668.23667.13379.23667a.06569.06569,0,0,0,.01966-.003l.64221-.21114a.104.104,0,0,0,.0681-.05831C69.47156,48.149,69.40372,48.00383,69.33812,47.86349Zm-.95291-1.58617a1.98119,1.98119,0,0,0-.53516-.45621,2.30748,2.30748,0,0,1-.2063-.147l-.0364-.02683a.22164.22164,0,0,0-.147-.05384.54513.54513,0,0,0-.43.3289c-.00657.123.16814.34076.39711.6125l.04915.05849a.54709.54709,0,0,0,.37171.22117l.00212.0001a.48325.48325,0,0,0,.35009-.14871C68.28373,46.58882,68.46807,46.39671,68.38521,46.27732Zm-15.0754-.936a2.73511,2.73511,0,0,1-.35081.02273c-.066,0-.12457-.00231-.179-.00445-.04789-.00176-.0926-.00354-.13608-.00354a1.01228,1.01228,0,0,0-.18966.01563l-.01284.0023-.00674.01152a1.43586,1.43586,0,0,0-.20454.66053c.03224.269.30752.3243.5149.366a1.26479,1.26479,0,0,0,.247.03094.29893.29893,0,0,0,.29724-.14911,3.7915,3.7915,0,0,0,.23244-.82831.08944.08944,0,0,0-.017-.07806.19473.19473,0,0,0-.14558-.04946A.36679.36679,0,0,0,53.30981,45.34137Zm14.57062,1.89227-.00816-.018-.01957.00115c-.37152.0227-.60254-.27864-.825-.56893-.0735-.09622-.14309-.18715-.21667-.26547a3.48843,3.48843,0,0,0-.35648-.3454,1.23662,1.23662,0,0,1-.287-.30424,3.778,3.778,0,0,1-.16489-.52254c-.03947-.14562-.07693-.28313-.11085-.37667-.00743-.01885-.01488-.03865-.02222-.05906-.06686-.1793-.14955-.40242-.38163-.44112a3.10756,3.10756,0,0,0-.363-.02939,1.05905,1.05905,0,0,1-.84648-.3134.6033.6033,0,0,1-.00372-.64575,1.89237,1.89237,0,0,0,.09049-.27039,2.58572,2.58572,0,0,0,.07064-1.26169c-.01469-.05672-.03337-.11308-.0516-.16757a.896.896,0,0,1-.06907-.43869.13343.13343,0,0,1,.14247-.07988.73565.73565,0,0,1,.19063.03781c.04578.01307.08116.01943.12389.02975a2.92023,2.92023,0,0,0,.6437.08572,2.876,2.876,0,0,0,1.11485-.2281,2.12863,2.12863,0,0,0,1.2514-1.89678,4.06263,4.06263,0,0,0-1.67737-2.62089c-.02507-.02167-.05163-.04357-.07864-.06588-.13609-.112-.29914-.253-.30379-.37968-.00461-.12593.32132-.2022.52631-.24889.04718-.01084.09049-.02064.126-.02993l.05286-.01386a2.31075,2.31075,0,0,0,.74953-.29163,1.7966,1.7966,0,0,0,.6338-1.87092c-.0039-.01213-.00744-.0286-.01116-.04636-.01381-.06367-.0309-.14286-.08925-.14286a.08346.08346,0,0,0-.056.02643c-.022.02023-.04454.04157-.06765.06353a1.55808,1.55808,0,0,1-.28954.2343,2.6107,2.6107,0,0,1-.79618.25672,4.35613,4.35613,0,0,0-.52471.13279,1.98692,1.98692,0,0,0-1.36561,1.11537,1.12131,1.12131,0,0,0,.12545.87564,5.89249,5.89249,0,0,0,.93159,1.04324,3.45341,3.45341,0,0,1,1.214,1.75924,1.06106,1.06106,0,0,1-.519,1.07606,1.56212,1.56212,0,0,1-.81062.2025A2.47249,2.47249,0,0,1,64.421,39.946a11.90928,11.90928,0,0,1-1.25759-.7679,7.93924,7.93924,0,0,0-1.93788-1.0511,4.50307,4.50307,0,0,0-.96406-.27094,3.04178,3.04178,0,0,1-1.32259-.49041c-.13147-.08576-.26226-.18037-.38862-.27183a3.44589,3.44589,0,0,0-1.11485-.61534,2.37382,2.37382,0,0,0-.44476-.09368,1.32581,1.32581,0,0,1-.62512-.19948c-.08748-.06253-.17514-.12672-.26315-.191a7.31346,7.31346,0,0,0-.994-.64951,7.85184,7.85184,0,0,0-1.87511-.58493.965.965,0,0,1-.49911-.39287,1.6014,1.6014,0,0,0-.32346-.32517,2.557,2.557,0,0,0-1.62414-.69777c-.05731,0-.11575.00239-.17372.00722a1.61425,1.61425,0,0,0-.85048.45045c-.61627.53961-1.27865,1.01912-1.91928,1.48277a17.71352,17.71352,0,0,0-2.78426,2.32639,6.50442,6.50442,0,0,0-1.42307,2.96053c-.04314.1526-.08625.30508-.131.45731-.07846.28214-.151.57347-.2211.85531-.38,1.52671-.77345,3.05024-2.29825,4.04052a.127.127,0,0,0,.02931.22879,1.25956,1.25956,0,0,0,1.316-.41013c.39814-.467.59952-.91732,1.06076-1.41149.01576-.01536.069-.06589.11209-.053.03189.00955.04632.02828.03125.08481a1.8019,1.8019,0,0,1-.29742.53981,2.01247,2.01247,0,0,0-.30486.55443,2.83885,2.83885,0,0,1-.91554,1.10413.45731.45731,0,0,0-.09067.07885c-.03361.04174-.03213.06008-.03213.06008-.01.09729.0665.15577.22073.16243h.00019a3.04233,3.04233,0,0,0,2.05013-1.1956.12975.12975,0,0,1,.09811-.03732.171.171,0,0,1,.094.01563,1.72167,1.72167,0,0,1,.19881.1704,1.462,1.462,0,0,0,.648.40155l.00462.001.00512-.00062a6.34,6.34,0,0,1,.88065-.07921c.08218,0,.16224.00311.23228.008.31192.09411.62315.2114.92394.32472.21279.08.43245.1628.65248.23758l.00514.00167.00514-.00017c.28475-.01062.48937-.27572.638-.5097a.79573.79573,0,0,0,.00469-.4869,1.13337,1.13337,0,0,1-.03373-.2806.34722.34722,0,0,1,.20186-.01023.85188.85188,0,0,0,.20013-.00476.17356.17356,0,0,0,.13086-.20908,1.83673,1.83673,0,0,0-.34178-.67991,2.16355,2.16355,0,0,1-.30255-.55952,2.17458,2.17458,0,0,0-.48567-.68675,1.74326,1.74326,0,0,1-.49628-.76472s-.0201-.06195.00246-.08451.08184.004.08184.004c.102.07468.20515.15852.30484.23967a2.33335,2.33335,0,0,0,1.06572.597,6.64555,6.64555,0,0,0,1.19956.05108.15788.15788,0,0,0,.13514-.20209,6.19305,6.19305,0,0,1-.43032-1.11079,3.28207,3.28207,0,0,1-.08209-1.69684.09941.09941,0,0,1,.09351-.07878l.01435.0027a.19.19,0,0,1,.11926.15522l.00568.078a3.93052,3.93052,0,0,0,.61147,2.24579,1.3603,1.3603,0,0,0,.50888.43464,1.23355,1.23355,0,0,1,.36611.25986.50738.50738,0,0,1,.04986.4999l-.61272.90391a1.97418,1.97418,0,0,0-.33594.65359,2.28618,2.28618,0,0,0-.00726.66284l.00443.05157a.11192.11192,0,0,1-.04508-.04944,1.27658,1.27658,0,0,1-.17176-1.116c.08179-.18908.57987-.89566.726-1.12817.04668-.07363.0843-.14885.04455-.2002a1.40627,1.40627,0,0,0-.52117-.224l-.01956.00252a.39608.39608,0,0,0-.19409.1766l-.0341.04821L49.553,45.06645l-.01647.05126a.71035.71035,0,0,0-.0447.41488c.04117.206.10606.4269.15361.58831.013.04472.02576.0897.03853.1346a1.69152,1.69152,0,0,0,.23615.586.31906.31906,0,0,0,.26085.1144,1.14177,1.14177,0,0,0,.17282-.018.746.746,0,0,1,.27431-.00687.59019.59019,0,0,1,.27546.20251.677.677,0,0,0,.295.2191c.2334.07809.47859.14225.71552.20427a8.71091,8.71091,0,0,1,.95264.28915,1.81135,1.81135,0,0,0,.54561.10867.71419.71419,0,0,0,.502-.19842,1.04269,1.04269,0,0,0,.38673-.6801c.04924-.26081.1348-.27895.32451-.28951a.52672.52672,0,0,0,.19463-.03054,1.907,1.907,0,0,0,.51-.64048,2.20967,2.20967,0,0,1,.1205-.20123.30282.30282,0,0,0,.05977-.17339.18084.18084,0,0,0-.18671-.18043l-.04749-.00176s-.80687-.004-1.02782.00027c-.33114.01826-.47619.3362-.59207.61751a2.04172,2.04172,0,0,1-.14318.30113.50051.50051,0,0,1-.46938.24938,1.83779,1.83779,0,0,1-.26741-.05454c-.43546-.1071-.8858-.21782-1.0689-.64964a.38951.38951,0,0,1,.06437-.35684,6.47,6.47,0,0,1,.85428-.85591,1.79549,1.79549,0,0,0,1.11627-.824.8514.8514,0,0,0,.10218-.23239.52155.52155,0,0,1,.18886-.31114c.07093-.03555.12785-.02307.14317.03833a1.22091,1.22091,0,0,1-.12864.659c-.01886.04809-.03747.0952-.05428.14158l-.01213.03426.03621.00372c.12033.012.24509.0183.37074.0183a7.22191,7.22191,0,0,0,1.2907-.15181,7.14836,7.14836,0,0,1,1.27335-.15027c.04648,0,.0935.00081.14193.00266.19446,0,.384.01709.56765.03352.17958.01625.365.03289.5511.03289.06624,0,.12813-.002.18879-.00615a1.09539,1.09539,0,0,0,1.09059-.68245,4.07649,4.07649,0,0,0-.03709-1.76513c-.00693-.03984-.01117-.06516-.0117-.07013l.00071-.01606a.081.081,0,0,1,.04117-.08363c.05163-.02753.1075,0,.134.06693a9.20108,9.20108,0,0,1,.4005,1.75291,3.633,3.633,0,0,0,.5873,1.418,2.14,2.14,0,0,0,1.81258.94206,3.976,3.976,0,0,0,.52365-.05575,1.36448,1.36448,0,0,1,.2474-.00921,2.98666,2.98666,0,0,1,2.40467,1.1965.05863.05863,0,0,1,.01.0381.067.067,0,0,1-.09048.04772l-.08149-.06293a3.77945,3.77945,0,0,0-1.7938-.93493,2.18084,2.18084,0,0,0-.3943-.03357,5.16585,5.16585,0,0,0-.59227.04481,4.87416,4.87416,0,0,1-.55755.04286,1.64074,1.64074,0,0,1-.63221-.11348,3.16377,3.16377,0,0,1-1.67028-1.76325.09642.09642,0,0,0-.08449-.05389.12782.12782,0,0,0-.06728.02186c-.09332.05823-.10926.0898-.12309.14784a5.21853,5.21853,0,0,0,.10024.63637,1.87147,1.87147,0,0,0,.82687,1.37534,2.08048,2.08048,0,0,0,1.02928.45975,1.28889,1.28889,0,0,0,.35763-.01564,2.899,2.899,0,0,1,.62193-.06726,3.25851,3.25851,0,0,1,1.89971.63712,1.83067,1.83067,0,0,1,.26989.20165,1.351,1.351,0,0,0,.39641.26272.80823.80823,0,0,0,.302.05763.87394.87394,0,0,0,.50363-.16673.51565.51565,0,0,1,.21429-.0533c.20568,0,.31982.16032.46441.36316a2.302,2.302,0,0,0,.319.38186.89891.89891,0,0,0,.64913.20457c.11069,0,.22356-.008.333-.01581.10564-.00735.23274-.00992.299-.0177a.83882.83882,0,0,0,.1022-.01714l-.00319-.02608A3.92459,3.92459,0,0,0,67.88043,47.23364ZM46.44014,45.31927a.26761.26761,0,0,1-.24492.10675.51394.51394,0,0,1-.27819-.07734.66638.66638,0,0,1-.25591-.52968.15378.15378,0,0,1,.17037-.18918.7483.7483,0,0,1,.50567.24559C46.3461,44.887,46.54,45.14391,46.44014,45.31927Zm.21055-3.37187a.18093.18093,0,0,1-.21817.08221.4441.4441,0,0,1-.1862-.1995c-.05271-.09337-.09563-.17508-.22021-.1654a.11324.11324,0,0,0-.0195.00168.52616.52616,0,0,0-.28013.13106c-.04454.03434-.2204.16627-.26459.20355a1.36239,1.36239,0,0,0-.53736.693c-.02462.10219-.02462.10219-.03313.1507a.34511.34511,0,0,1-.11837.25435l-.00744.00327a.13126.13126,0,0,1-.03656.0052.16137.16137,0,0,1-.10272-.03963.1199.1199,0,0,1-.04958-.09546,1.45656,1.45656,0,0,1,.46352-1.23447,3.84458,3.84458,0,0,0,.57119-.63032c.08378-.10766.17072-.219.26032-.3218.06863-.06861.17976-.01.36393.19033a3.99531,3.99531,0,0,1,.42731.76205A.26713.26713,0,0,1,46.65069,41.9474Zm4.0245-5.65354c-.09219.0877-.18815.17532-.28555.26417a5.34223,5.34223,0,0,0-.9259.99687,2.88859,2.88859,0,0,0-.26883.48674c-.00868.01721-.02753.05529-.0658.05529a.07357.07357,0,0,1-.05133-.02479,1.40307,1.40307,0,0,1,.07366-.75352,3.44224,3.44224,0,0,1,1.17507-1.45956.39677.39677,0,0,1,.20614-.05914.22012.22012,0,0,1,.21931.13162A.2824.2824,0,0,1,50.67519,36.29386Z" style="fill: #e2061f"/>
    </g>
  </g>
</svg>
